{"glyphs":{" ":{"ha":694,"x_min":0,"x_max":0,"o":""},"D":{"ha":735,"x_min":33,"x_max":701,"o":"m 572 483 q 555 525 572 507 q 514 543 538 543 q 474 525 489 543 q 460 483 460 507 q 474 442 460 460 q 514 425 489 425 q 555 442 538 425 q 572 483 572 460 m 271 483 q 253 525 271 507 q 211 543 235 543 q 172 525 188 543 q 157 483 157 507 q 172 442 157 460 q 211 425 188 425 q 253 442 235 425 q 271 483 271 460 m 357 386 q 341 381 349 382 q 324 376 333 379 q 292 360 308 365 q 260 358 276 351 q 207 376 243 364 q 163 372 172 382 q 157 360 157 367 q 169 339 157 343 q 197 327 182 335 q 222 301 211 319 q 228 235 232 282 q 232 187 224 207 q 256 154 240 167 q 290 135 271 142 q 324 128 308 129 q 346 123 333 124 q 378 122 358 122 q 417 128 394 124 q 460 144 440 132 q 493 177 481 156 q 501 235 506 199 q 508 301 497 282 q 533 327 519 319 q 560 339 547 335 q 572 360 572 343 q 564 372 569 367 q 549 378 558 376 q 524 376 540 379 q 471 358 488 364 q 438 360 454 351 q 419 367 425 363 q 400 376 413 371 q 392 378 397 376 q 368 381 381 381 q 357 381 368 392 l 363 386 l 357 386 m 378 3 l 185 -1 q 210 14 196 6 q 234 30 221 21 q 260 47 247 39 q 147 124 190 71 q 104 247 104 176 q 108 286 104 267 q 119 322 111 306 q 56 444 79 375 q 33 592 33 514 q 60 742 33 672 q 132 865 86 813 q 238 949 178 918 q 368 979 299 979 q 497 949 436 979 q 603 865 558 918 q 675 742 649 813 q 701 592 701 672 q 678 444 701 514 q 610 322 654 375 q 627 286 622 306 q 632 247 632 267 q 592 131 632 181 q 486 51 551 81 q 515 34 500 43 q 543 17 531 25 q 572 -1 558 7 l 378 3 m 363 31 l 378 3 l 394 31 l 368 31 l 363 31 z "},"R":{"ha":860,"x_min":18,"x_max":840,"o":"m 383 413 l 372 397 l 435 350 l 497 397 l 488 413 l 435 376 l 383 413 m 233 449 q 253 404 233 421 q 300 388 274 388 q 345 404 328 388 q 363 449 363 421 q 345 497 363 476 q 300 517 328 517 q 253 497 274 517 q 233 449 233 476 m 503 454 q 522 407 503 426 q 569 388 542 388 q 617 407 597 388 q 638 454 638 426 q 617 499 638 482 q 569 517 597 517 q 522 499 542 517 q 503 454 503 482 m 431 -1 l 156 -1 q 83 0 114 -6 q 38 22 57 6 q 26 75 18 39 q 40 124 31 93 q 61 190 49 154 q 89 267 74 226 q 119 346 104 307 q 197 542 156 438 l 83 801 q 72 856 74 831 q 78 901 71 878 q 108 940 85 925 q 158 961 133 960 q 205 954 183 963 q 244 930 226 946 q 275 899 263 914 q 289 872 279 890 q 310 829 299 854 q 335 775 322 804 q 363 717 349 746 q 431 567 394 649 l 431 563 l 431 567 q 499 717 467 649 q 526 775 513 746 q 553 829 540 804 q 575 872 565 854 q 590 899 585 890 q 620 930 603 914 q 658 954 638 946 q 703 961 679 963 q 751 940 726 960 q 782 901 775 925 q 789 856 789 878 q 782 801 789 831 l 663 542 q 740 346 704 438 q 770 267 756 307 q 797 190 785 226 q 819 124 810 154 q 833 75 829 93 q 822 22 840 39 q 779 0 804 6 q 710 -1 750 -6 l 431 -1 z "},"O":{"ha":819,"x_min":22,"x_max":788,"o":"m 436 311 q 428 326 436 319 q 414 333 421 333 q 397 326 404 333 q 390 311 390 319 q 397 291 390 299 q 414 283 404 283 q 428 291 421 283 q 436 311 436 299 m 510 572 l 510 556 q 526 500 511 526 q 565 455 542 474 q 620 425 589 436 q 686 414 651 414 q 754 425 718 414 q 696 337 732 378 q 617 265 660 296 l 629 265 q 712 238 676 261 q 765 184 747 214 q 781 126 783 154 q 747 85 778 97 q 713 87 722 76 q 697 115 704 97 q 678 151 690 133 q 635 175 667 168 q 644 144 640 160 q 649 113 647 131 q 646 79 650 96 q 622 34 642 56 q 579 -1 603 13 q 534 -15 556 -14 q 504 4 513 -15 q 503 30 497 19 q 518 50 508 40 q 538 69 528 60 q 549 90 547 78 q 547 115 549 103 q 540 139 546 128 q 520 163 533 150 q 482 188 507 175 q 464 193 474 190 q 445 198 456 196 q 424 203 435 200 q 406 198 415 200 q 390 193 397 196 q 374 188 382 190 q 335 163 349 175 q 315 139 321 150 q 307 115 308 128 q 306 90 306 103 q 317 69 307 78 q 337 50 328 60 q 351 30 346 40 q 351 4 357 19 q 319 -15 340 -15 q 274 -1 297 -14 q 233 34 251 13 q 210 79 214 56 q 205 113 204 96 q 208 144 206 131 q 215 175 211 160 q 174 151 185 168 q 156 115 163 133 q 141 87 150 97 q 107 85 132 76 q 75 120 79 94 q 85 174 71 146 q 128 227 99 203 q 197 260 157 251 q 114 335 150 290 q 57 431 78 379 q 94 417 74 421 q 135 414 114 414 q 248 451 200 414 q 306 539 296 488 q 314 558 310 546 q 318 578 318 569 q 281 663 318 629 q 193 697 243 697 q 109 663 146 697 q 72 578 72 629 q 88 522 72 549 q 125 481 103 494 q 59 503 85 481 q 28 556 33 525 q 23 567 24 560 q 22 583 22 575 q 52 732 22 663 q 134 852 82 801 q 257 933 186 903 q 408 963 328 963 q 556 933 486 963 q 676 852 625 903 q 758 732 728 801 q 788 583 788 663 q 787 552 788 567 q 782 521 786 538 q 749 492 769 504 q 703 481 728 481 q 736 523 725 499 q 747 572 747 547 q 714 658 747 624 q 629 692 681 692 q 544 658 578 692 q 510 572 510 624 z "},"P":{"ha":2749,"x_min":36,"x_max":2713,"o":"m 1368 378 q 1371 374 1369 375 q 1374 370 1372 371 q 1378 367 1375 369 l 1378 349 l 1378 340 q 1375 333 1378 333 q 1368 332 1372 332 l 1365 332 q 1360 340 1360 335 l 1360 367 q 1363 374 1360 371 q 1368 378 1365 378 m 1307 415 l 1304 415 l 1307 415 m 1529 367 q 1528 361 1529 364 q 1524 358 1528 358 l 1514 358 l 1514 378 l 1524 378 q 1529 367 1529 378 m 1524 344 q 1533 340 1533 344 q 1531 333 1533 333 q 1524 332 1528 332 l 1514 332 l 1514 344 l 1524 344 l 1524 344 m 1022 372 l 1022 367 l 1022 354 l 1022 340 q 1013 332 1022 332 l 1003 332 l 1003 378 l 1013 378 q 1022 372 1017 378 m 1589 378 q 1599 367 1599 378 l 1599 349 l 1599 340 q 1598 333 1599 333 q 1594 332 1597 332 l 1585 332 l 1585 340 l 1585 367 q 1589 378 1585 378 m 2538 974 q 2607 960 2575 974 q 2663 922 2639 946 q 2699 866 2686 897 q 2713 800 2713 835 l 2713 171 q 2699 103 2713 135 q 2663 49 2686 72 q 2607 11 2639 25 q 2538 -3 2575 -3 l 210 -3 q 142 11 174 -3 q 88 49 111 25 q 50 103 64 72 q 36 171 36 135 l 36 800 q 50 866 36 835 q 88 922 64 897 q 142 960 111 946 q 210 974 174 974 l 2538 974 l 2538 974 m 1447 586 q 1450 585 1446 585 l 1453 585 q 1456 579 1453 579 q 1458 579 1457 578 l 1468 579 l 1488 579 l 1490 579 q 1493 579 1492 578 q 1496 585 1496 579 l 1490 585 l 1496 585 l 1500 585 l 1506 585 l 1500 585 l 1500 579 q 1497 579 1499 578 q 1496 585 1496 579 l 1500 579 l 1506 579 l 1511 579 l 1514 579 l 1533 579 l 1543 579 l 1549 579 q 1551 582 1551 579 l 1551 585 q 1551 586 1550 585 l 1553 586 q 1555 587 1554 586 q 1557 588 1556 588 l 1561 593 l 1557 593 l 1557 599 l 1557 603 l 1557 611 l 1557 622 l 1561 622 l 1561 624 q 1557 626 1561 626 l 1557 631 l 1551 631 l 1549 635 l 1538 635 l 1533 635 l 1524 635 l 1519 635 l 1514 635 l 1506 635 l 1458 631 l 1456 631 q 1453 626 1453 631 q 1450 622 1450 626 l 1450 617 l 1450 608 l 1450 603 l 1450 599 l 1450 588 l 1447 586 m 1543 524 l 1543 526 l 1543 532 l 1543 538 l 1543 547 l 1543 550 l 1533 556 l 1524 556 q 1518 557 1521 556 q 1514 556 1514 557 l 1511 556 l 1506 556 l 1500 556 l 1496 556 l 1490 556 l 1482 556 l 1476 556 l 1464 556 q 1456 551 1460 551 q 1453 547 1453 550 l 1450 542 l 1450 538 l 1453 526 l 1453 524 l 1453 518 l 1453 504 q 1453 501 1451 503 q 1458 494 1453 500 l 1464 494 l 1468 494 l 1472 494 l 1476 494 l 1514 494 l 1519 494 l 1524 494 l 1529 494 l 1533 494 l 1533 500 l 1538 500 q 1540 503 1540 501 q 1542 507 1540 506 q 1543 510 1542 508 l 1543 513 l 1543 518 l 1543 524 m 863 611 q 854 594 856 597 q 853 588 853 592 l 853 579 l 857 579 q 869 561 865 568 q 876 550 872 554 l 881 550 l 890 542 l 894 547 q 906 565 906 553 q 916 576 913 572 q 924 588 919 581 q 930 594 928 592 q 932 603 932 596 l 938 603 q 944 614 940 610 q 947 622 947 618 q 944 626 947 625 q 942 631 942 628 l 942 635 l 938 635 l 932 635 l 929 635 l 894 635 l 894 640 l 890 635 l 881 631 q 874 624 878 628 q 863 611 869 619 m 515 419 l 515 622 l 510 631 l 504 631 q 500 634 501 633 q 492 635 499 635 l 464 635 l 464 631 l 461 631 q 458 626 458 631 l 454 626 l 454 419 l 464 410 l 467 410 l 472 410 l 478 410 l 504 410 l 515 419 m 638 550 q 642 561 642 556 l 642 564 q 640 568 642 565 q 638 574 639 571 l 632 588 l 632 593 l 626 593 l 626 603 l 613 617 q 608 624 610 621 q 604 626 607 626 l 594 626 l 589 631 l 581 635 l 576 635 l 565 635 l 549 635 q 528 631 533 635 l 528 626 l 528 608 l 528 603 l 528 599 l 528 593 l 528 588 l 528 585 l 533 585 q 541 580 538 581 q 549 579 544 579 l 551 579 q 554 582 551 581 q 563 585 557 585 l 565 579 l 571 579 l 576 574 q 581 571 581 574 l 581 569 l 586 561 q 585 556 586 557 q 581 547 585 554 q 576 538 576 542 q 568 532 571 532 q 565 532 565 531 l 563 532 l 563 538 l 551 538 l 549 538 q 533 526 533 538 l 528 526 l 528 524 l 528 500 l 528 494 q 533 486 528 486 q 541 481 538 482 q 549 481 544 481 l 551 481 l 571 481 l 576 481 q 584 484 581 483 q 590 486 588 485 q 594 489 593 488 l 600 489 q 604 492 603 489 q 608 494 606 494 q 615 502 611 499 q 626 513 619 506 l 632 524 q 633 530 632 526 q 638 538 633 533 l 638 542 l 638 550 l 638 550 m 717 419 l 717 433 l 717 439 l 717 510 l 711 510 l 711 574 l 711 579 l 711 626 l 708 631 q 693 635 703 635 l 685 635 l 661 635 l 661 631 q 656 625 656 625 q 656 622 654 624 l 656 617 l 656 494 l 656 489 l 656 481 l 656 476 l 656 465 l 656 425 l 661 419 l 661 415 l 665 410 l 674 410 q 676 406 674 406 l 679 406 l 682 406 q 685 410 685 406 l 699 410 l 708 410 l 711 410 l 711 415 l 717 419 m 833 465 l 807 513 l 792 524 l 792 513 q 786 504 786 510 q 781 501 783 504 q 778 500 779 500 l 778 494 q 772 492 772 494 q 772 489 771 490 q 769 483 769 486 q 764 476 768 479 l 760 472 q 754 467 757 469 q 749 463 751 465 l 746 457 l 746 453 l 740 453 l 740 449 q 735 435 736 438 q 735 428 735 432 q 735 424 735 425 q 740 415 736 422 q 743 410 740 411 q 749 410 746 410 l 754 410 l 749 410 l 758 410 l 772 410 l 778 410 l 783 410 q 790 410 786 410 q 796 415 793 411 q 799 422 796 419 l 801 425 l 810 433 l 815 443 q 819 447 817 446 q 822 450 821 449 l 825 453 q 828 460 825 457 l 831 463 l 833 465 m 947 354 l 890 354 l 881 344 l 938 344 l 947 354 m 951 439 l 947 439 l 942 449 q 938 455 939 451 q 932 463 936 458 l 924 471 l 924 476 q 916 483 919 479 q 908 489 913 486 l 908 494 q 906 497 906 494 l 906 500 l 900 504 q 894 507 894 504 q 894 510 893 508 l 890 513 l 890 518 l 886 518 q 885 521 885 519 q 881 524 882 524 q 878 530 881 526 q 876 538 876 533 l 871 542 q 865 549 868 546 q 863 556 863 551 q 857 558 857 556 q 857 561 856 560 l 857 565 q 847 576 850 572 q 839 588 843 581 q 834 590 835 588 q 831 593 833 593 l 825 603 l 810 622 q 801 631 810 631 l 792 635 l 796 631 q 790 633 793 631 q 783 635 786 635 l 786 635 l 754 635 l 749 635 l 740 635 l 740 631 l 740 622 l 740 608 q 743 607 742 607 q 746 603 746 604 q 751 594 749 603 q 754 588 753 590 l 758 588 q 764 581 761 583 q 772 574 768 574 l 772 569 q 781 556 776 563 q 786 547 786 550 l 792 547 l 792 542 l 796 538 l 801 532 q 804 528 804 529 q 806 525 804 526 q 807 524 806 524 l 807 518 l 810 518 l 819 504 l 822 504 q 825 500 825 504 l 831 489 l 839 481 l 844 476 q 849 467 844 471 q 853 463 850 464 l 857 457 l 857 453 l 863 453 l 868 449 l 868 439 l 876 428 l 881 425 q 886 418 885 421 q 890 415 888 415 l 886 415 q 890 413 889 415 q 894 410 892 410 l 906 410 l 908 410 l 924 410 l 929 410 l 932 410 q 940 413 936 410 q 947 419 943 417 q 949 424 947 424 q 951 428 951 425 l 951 439 m 975 410 l 1003 410 l 1008 410 l 1013 410 l 1017 410 l 1022 419 l 1022 439 l 1022 443 l 1022 457 l 1022 603 l 1025 611 l 1025 617 q 1017 631 1025 624 l 1017 635 l 1013 635 l 1008 635 l 1003 635 l 990 635 l 985 635 l 975 631 q 965 622 969 626 l 965 603 l 965 585 l 965 463 l 965 443 l 961 433 l 961 428 l 965 425 l 965 419 l 965 415 l 969 410 l 975 410 m 1036 335 q 1038 346 1036 342 q 1040 354 1040 350 q 1038 361 1040 357 q 1036 372 1036 365 q 1031 382 1036 378 q 1017 392 1031 392 l 993 392 q 990 389 990 392 l 990 388 l 990 321 l 990 318 q 993 317 990 317 l 1022 317 q 1036 335 1036 317 m 1051 631 q 1046 608 1046 626 q 1051 579 1046 585 l 1054 579 l 1068 579 l 1074 579 l 1078 579 l 1083 579 l 1092 579 l 1125 579 l 1135 579 l 1139 579 l 1144 585 l 1147 588 l 1153 593 l 1153 611 l 1147 611 q 1150 615 1147 613 q 1153 617 1151 615 l 1147 622 l 1147 626 l 1147 631 l 1144 635 l 1139 635 l 1129 635 l 1107 635 l 1074 635 l 1068 635 l 1064 635 l 1054 635 l 1051 631 l 1051 631 m 1121 494 q 1127 497 1124 494 q 1135 500 1131 500 l 1135 504 l 1139 504 l 1139 510 l 1139 532 l 1139 538 q 1133 551 1139 547 q 1121 556 1128 556 l 1115 556 l 1107 556 l 1101 556 l 1074 556 l 1068 556 l 1064 556 l 1054 556 l 1051 550 q 1046 538 1046 547 l 1046 532 l 1046 524 l 1046 518 l 1046 510 q 1051 500 1046 504 q 1057 494 1054 494 q 1060 494 1058 493 l 1068 494 q 1074 500 1068 500 l 1121 494 l 1121 494 m 1046 415 q 1056 410 1054 410 q 1060 410 1058 408 l 1074 410 l 1097 410 l 1101 415 l 1139 415 l 1144 415 l 1153 425 l 1153 428 l 1153 463 l 1147 463 l 1144 465 l 1139 465 l 1139 471 l 1135 471 q 1129 465 1129 471 l 1101 465 l 1097 465 l 1092 465 l 1054 465 l 1051 463 q 1046 449 1046 457 l 1046 443 l 1046 439 l 1046 419 l 1046 415 m 1101 332 q 1106 333 1104 332 l 1107 335 q 1102 347 1107 342 q 1086 358 1097 351 q 1074 372 1074 367 l 1074 378 l 1078 378 q 1085 376 1082 378 q 1092 367 1088 375 q 1097 372 1096 371 q 1101 378 1099 374 l 1101 382 q 1090 389 1094 386 q 1078 392 1085 392 l 1074 392 q 1060 382 1067 392 l 1060 372 q 1074 349 1060 357 q 1086 335 1086 343 l 1086 332 l 1083 326 q 1076 329 1079 326 q 1068 335 1072 332 q 1065 339 1068 336 q 1064 340 1064 339 q 1060 332 1060 335 l 1054 332 q 1054 329 1053 331 q 1060 326 1054 326 l 1060 321 q 1065 318 1063 321 q 1068 317 1067 317 l 1083 317 q 1096 320 1090 317 q 1101 332 1101 324 m 1171 354 l 1168 354 l 1147 354 l 1147 344 l 1153 344 l 1153 335 q 1147 332 1153 332 l 1139 332 l 1139 340 l 1139 367 q 1144 378 1139 378 q 1150 374 1147 378 q 1153 367 1153 371 l 1168 367 l 1168 372 q 1163 382 1168 378 q 1144 392 1156 392 q 1134 389 1140 392 q 1125 382 1128 386 l 1125 372 q 1122 358 1122 365 q 1121 335 1121 350 q 1123 331 1121 332 q 1125 326 1125 331 q 1133 318 1128 319 q 1144 317 1138 317 l 1147 317 q 1162 320 1156 317 q 1168 332 1168 324 q 1171 344 1171 335 l 1171 354 m 1232 388 l 1232 392 l 1219 392 l 1219 354 q 1212 376 1215 368 q 1206 388 1208 383 q 1204 389 1204 388 q 1200 392 1201 392 l 1190 392 l 1186 388 l 1186 321 q 1188 317 1186 317 l 1190 317 l 1200 317 l 1200 354 q 1210 333 1207 336 q 1214 326 1213 329 q 1219 318 1218 319 q 1224 317 1221 317 l 1229 317 q 1234 319 1232 317 q 1232 321 1236 321 l 1232 388 m 1232 449 l 1232 457 q 1233 460 1232 458 q 1232 463 1233 463 l 1232 465 l 1232 471 l 1232 476 l 1232 486 l 1232 489 l 1232 494 l 1232 500 l 1232 504 l 1232 510 l 1232 513 l 1232 518 l 1232 532 l 1232 538 l 1232 542 l 1232 547 l 1232 561 l 1232 556 l 1232 565 l 1232 569 l 1232 574 l 1232 579 l 1232 585 l 1232 588 l 1232 599 l 1232 608 l 1232 617 l 1232 622 l 1232 626 l 1229 626 q 1224 631 1229 631 l 1224 635 l 1214 635 l 1219 640 q 1215 639 1217 639 q 1212 638 1213 638 q 1208 635 1211 638 l 1207 636 l 1206 636 l 1206 635 q 1203 636 1204 635 q 1200 635 1200 636 l 1196 635 l 1190 635 l 1186 635 l 1182 635 l 1171 635 l 1171 631 q 1169 628 1169 631 q 1171 626 1169 626 l 1169 626 l 1169 625 q 1171 622 1169 622 l 1171 617 l 1171 611 l 1171 608 l 1171 593 l 1171 599 l 1171 593 l 1171 588 l 1171 585 q 1170 578 1171 582 q 1169 571 1169 575 q 1168 561 1168 565 l 1171 565 q 1170 561 1171 563 q 1169 558 1169 560 q 1168 556 1168 557 l 1171 556 l 1171 550 l 1171 547 l 1171 542 l 1171 538 l 1171 526 l 1171 518 q 1170 514 1171 515 q 1169 511 1169 513 l 1168 510 l 1171 510 l 1171 504 l 1171 500 l 1171 494 l 1171 489 l 1171 486 l 1168 481 l 1171 481 l 1171 476 l 1171 471 l 1171 465 l 1171 463 l 1171 457 l 1171 453 l 1171 449 l 1171 443 q 1169 440 1171 442 l 1169 439 l 1168 439 l 1171 433 l 1171 428 l 1171 419 l 1171 415 l 1176 410 l 1182 410 l 1186 406 l 1186 410 l 1190 410 l 1196 410 l 1200 410 l 1206 410 l 1208 410 l 1214 410 l 1219 410 l 1229 410 l 1229 415 q 1231 413 1229 411 l 1232 415 l 1232 425 l 1232 428 l 1232 443 l 1232 449 m 1267 326 l 1267 332 l 1257 332 q 1254 331 1256 331 q 1251 326 1251 328 l 1251 321 q 1254 317 1251 317 l 1257 317 l 1267 317 l 1267 321 l 1267 326 m 1251 349 q 1254 344 1251 344 l 1257 344 l 1267 344 l 1267 349 l 1267 354 l 1267 358 l 1261 358 l 1257 358 l 1254 358 q 1251 354 1251 358 l 1251 349 l 1251 349 m 1331 335 l 1317 340 q 1314 333 1317 333 q 1307 332 1311 332 l 1306 332 q 1304 335 1304 332 q 1299 338 1299 335 q 1299 340 1297 339 l 1299 367 q 1301 374 1299 371 q 1307 378 1304 378 q 1313 374 1311 378 q 1317 367 1314 371 l 1328 367 l 1331 367 l 1331 372 q 1329 378 1331 376 q 1328 382 1328 379 q 1307 392 1318 392 q 1290 382 1294 392 q 1288 378 1290 379 q 1285 372 1285 376 l 1285 335 q 1290 326 1285 332 q 1295 319 1290 322 q 1307 317 1300 317 l 1313 317 q 1331 332 1331 317 l 1331 335 m 1342 415 l 1351 415 l 1351 419 l 1354 428 q 1356 431 1354 429 q 1354 433 1356 433 l 1360 439 l 1354 439 l 1354 443 l 1354 449 l 1354 453 l 1354 465 l 1354 463 l 1360 471 l 1351 471 q 1350 474 1350 472 q 1346 476 1347 476 l 1346 471 l 1342 476 l 1336 471 l 1336 476 l 1331 476 l 1328 476 l 1328 471 q 1322 475 1328 472 q 1317 476 1319 475 q 1314 475 1315 475 q 1313 471 1313 474 l 1307 471 l 1304 471 l 1299 471 l 1293 471 l 1290 471 q 1285 476 1285 471 l 1281 476 q 1275 475 1276 475 q 1275 471 1272 474 l 1269 471 l 1267 476 q 1265 477 1265 476 q 1263 478 1264 478 l 1261 478 q 1261 476 1260 478 l 1257 465 q 1256 462 1257 463 q 1251 457 1256 461 l 1251 453 l 1247 453 q 1249 449 1247 450 q 1251 443 1251 447 l 1251 449 l 1251 443 l 1251 439 l 1251 433 l 1251 428 l 1251 425 l 1251 419 l 1257 419 l 1257 415 l 1260 413 q 1267 410 1263 410 l 1275 410 q 1279 407 1276 410 q 1281 406 1279 406 l 1281 410 l 1285 410 l 1290 410 l 1293 410 l 1293 415 l 1290 415 l 1290 419 l 1293 419 q 1296 415 1293 415 l 1299 415 l 1293 415 l 1299 415 l 1304 415 l 1307 415 l 1313 415 l 1317 415 l 1322 415 l 1328 415 l 1331 415 l 1336 415 l 1342 415 m 1392 344 l 1392 367 q 1389 382 1389 372 q 1368 392 1379 392 q 1356 389 1361 392 q 1351 382 1351 386 q 1346 372 1346 378 l 1346 335 l 1346 326 q 1353 318 1350 319 q 1365 317 1357 317 l 1368 317 l 1383 317 q 1392 335 1392 322 l 1392 344 m 1407 410 l 1411 410 l 1421 410 l 1426 415 q 1429 425 1429 419 l 1429 428 l 1429 433 l 1429 439 l 1429 443 l 1429 449 l 1429 457 l 1429 463 l 1429 465 l 1435 486 l 1429 481 q 1432 489 1429 483 l 1435 494 l 1429 494 q 1433 497 1431 494 q 1435 500 1433 499 l 1429 494 l 1435 510 l 1429 504 q 1431 507 1432 507 q 1431 508 1431 507 q 1429 510 1429 508 l 1429 513 l 1429 518 l 1429 524 l 1426 526 l 1429 532 l 1429 574 l 1426 579 l 1435 585 l 1432 585 q 1429 588 1429 585 l 1426 588 l 1426 593 q 1429 599 1429 593 l 1429 603 l 1429 622 q 1426 624 1426 622 l 1426 626 q 1415 631 1426 631 q 1413 635 1415 635 l 1411 635 l 1407 631 q 1404 632 1406 631 l 1403 632 l 1403 631 l 1397 631 l 1383 631 q 1379 632 1381 632 q 1378 631 1375 632 l 1375 631 q 1374 626 1374 631 q 1368 624 1368 626 q 1368 622 1367 622 l 1368 617 l 1368 611 l 1368 608 l 1368 603 l 1368 599 l 1368 593 l 1368 585 l 1365 569 l 1368 569 q 1365 564 1365 564 l 1365 561 l 1368 565 q 1365 558 1365 560 l 1365 556 l 1368 561 l 1368 542 l 1365 538 l 1374 538 q 1371 535 1372 535 q 1368 538 1368 532 l 1368 463 l 1368 453 l 1374 439 q 1369 436 1371 436 q 1367 435 1368 435 q 1368 439 1367 436 l 1368 428 l 1368 425 l 1374 419 q 1389 410 1374 410 l 1392 410 l 1397 410 l 1407 410 m 1482 388 q 1481 389 1481 388 q 1476 392 1478 392 l 1468 392 l 1468 388 l 1458 344 l 1453 344 l 1444 388 l 1444 392 l 1435 392 q 1429 388 1429 392 l 1435 367 l 1429 344 l 1426 344 l 1415 388 l 1415 392 l 1407 392 q 1403 388 1403 392 l 1415 321 l 1421 317 l 1429 317 q 1435 321 1435 317 q 1438 325 1436 322 q 1440 331 1439 328 q 1444 340 1442 335 l 1444 321 q 1449 318 1446 321 q 1450 317 1449 317 l 1464 317 l 1465 317 q 1468 321 1468 317 l 1482 388 l 1482 388 m 1543 321 q 1548 328 1547 325 q 1549 335 1549 332 q 1547 348 1549 342 q 1538 354 1546 354 q 1549 372 1549 354 l 1549 382 q 1529 392 1539 392 l 1506 392 q 1500 389 1500 392 q 1500 388 1499 388 l 1500 321 q 1500 318 1499 319 q 1506 317 1500 317 l 1533 317 q 1543 321 1543 317 m 1613 344 l 1613 367 q 1610 382 1613 378 q 1603 389 1610 386 q 1589 392 1596 392 q 1572 382 1576 392 q 1572 378 1572 379 q 1567 372 1571 376 l 1567 335 q 1572 326 1567 332 q 1578 318 1575 319 q 1589 317 1582 317 l 1594 317 l 1604 317 q 1612 324 1611 319 q 1613 335 1613 328 l 1613 344 m 1628 504 l 1628 513 l 1628 526 q 1613 547 1619 535 l 1613 550 l 1610 561 q 1604 569 1610 565 q 1599 572 1600 569 q 1594 574 1597 574 l 1592 571 q 1585 569 1590 569 l 1585 565 q 1583 558 1585 563 q 1581 550 1581 554 l 1581 547 l 1575 542 l 1575 538 l 1572 532 q 1567 518 1567 526 l 1567 513 q 1561 508 1561 513 q 1561 504 1560 506 l 1558 499 q 1557 489 1557 496 l 1551 489 l 1549 476 l 1549 471 q 1544 463 1546 465 q 1540 458 1542 460 l 1538 457 l 1538 453 q 1533 439 1533 449 l 1529 439 l 1533 439 q 1530 431 1531 435 q 1529 425 1529 428 l 1529 419 l 1529 415 l 1533 415 l 1533 410 l 1538 410 l 1543 410 l 1549 410 l 1572 410 l 1575 410 l 1581 410 l 1585 410 l 1589 419 q 1593 422 1590 419 q 1594 425 1593 424 l 1604 449 l 1604 453 l 1604 457 q 1610 465 1607 460 l 1613 471 l 1613 476 l 1613 481 l 1618 486 l 1618 489 q 1619 493 1618 492 q 1622 494 1621 493 l 1628 504 m 1674 392 l 1665 392 q 1660 388 1660 392 l 1650 367 l 1642 388 q 1640 389 1640 388 q 1636 392 1638 392 l 1628 392 l 1628 388 q 1632 378 1629 383 q 1637 367 1635 374 q 1642 354 1639 361 l 1642 321 l 1646 317 l 1650 317 q 1654 318 1653 317 q 1656 321 1654 319 l 1656 354 l 1674 392 m 1729 332 q 1733 333 1732 332 l 1735 335 q 1731 347 1735 342 q 1717 358 1726 351 q 1703 372 1703 367 l 1703 378 l 1707 378 q 1714 376 1710 378 q 1721 367 1718 375 l 1726 367 q 1729 378 1726 372 l 1729 382 q 1718 389 1722 386 q 1707 392 1714 392 q 1693 382 1693 392 q 1689 372 1689 378 q 1703 349 1689 357 q 1717 335 1717 342 l 1717 332 l 1711 326 q 1705 329 1708 326 q 1697 335 1701 332 q 1694 339 1697 336 q 1693 340 1693 339 q 1689 332 1689 335 l 1683 332 q 1683 329 1682 331 q 1689 326 1683 326 l 1693 321 l 1697 317 l 1711 317 q 1729 332 1729 317 m 1758 410 q 1763 417 1763 414 q 1764 425 1764 421 q 1763 428 1763 425 q 1761 432 1761 429 q 1758 439 1761 435 l 1758 443 l 1758 449 l 1758 453 q 1753 463 1756 460 q 1750 471 1750 467 q 1747 475 1749 472 q 1740 481 1744 481 q 1738 494 1740 488 q 1735 504 1735 501 q 1732 508 1733 506 q 1729 513 1731 511 q 1726 518 1728 515 l 1726 532 l 1726 538 q 1719 542 1722 540 q 1717 547 1717 543 l 1717 550 l 1711 561 l 1707 565 l 1707 574 l 1703 579 l 1697 585 l 1697 593 l 1689 611 l 1689 622 q 1685 628 1689 625 q 1679 635 1682 632 l 1674 635 l 1665 635 l 1660 635 l 1628 635 l 1622 631 q 1618 625 1618 626 l 1618 622 q 1628 603 1618 617 l 1631 600 q 1633 593 1633 597 l 1633 588 l 1636 579 q 1641 574 1640 575 q 1642 569 1642 572 l 1646 561 l 1646 556 q 1650 549 1650 556 l 1650 542 l 1656 538 l 1660 524 l 1665 510 l 1671 504 l 1671 500 l 1674 500 l 1674 494 l 1671 494 q 1668 493 1669 493 q 1665 489 1665 490 l 1656 489 q 1650 476 1650 486 l 1650 471 l 1646 465 l 1646 463 l 1642 457 l 1642 453 l 1642 443 l 1646 439 l 1646 433 l 1665 433 q 1665 436 1664 435 q 1671 439 1665 439 l 1693 439 l 1693 433 q 1697 431 1697 433 l 1697 428 q 1700 425 1697 425 l 1703 425 l 1703 419 l 1703 415 l 1707 410 l 1711 410 l 1721 410 l 1729 410 l 1735 410 l 1754 410 l 1758 410 l 1758 410 m 1815 358 l 1811 358 l 1796 358 l 1788 358 l 1788 349 l 1790 349 l 1806 344 q 1811 349 1811 344 l 1815 349 l 1815 358 m 1839 550 l 1843 550 q 1840 554 1843 551 q 1839 556 1839 554 l 1839 617 l 1839 626 l 1833 631 l 1828 635 l 1825 635 l 1801 635 l 1796 635 l 1788 635 q 1782 629 1782 629 q 1782 626 1781 628 q 1778 617 1778 622 l 1778 611 l 1778 453 l 1782 453 q 1778 450 1778 453 l 1778 449 l 1778 419 l 1782 419 q 1788 410 1788 415 l 1801 410 l 1806 410 l 1815 410 l 1819 410 l 1825 410 l 1828 410 q 1835 415 1832 414 q 1839 419 1839 417 l 1843 419 l 1843 425 l 1843 463 l 1840 463 q 1839 465 1839 463 l 1839 510 l 1843 513 q 1840 513 1842 511 q 1839 518 1839 513 l 1839 532 q 1840 532 1839 531 q 1843 538 1843 532 l 1843 550 l 1839 550 m 1871 481 l 1889 481 l 1910 481 q 1915 481 1913 481 q 1918 486 1918 482 l 1924 486 l 1928 486 l 1936 489 q 1942 494 1940 493 q 1947 494 1943 494 l 1961 504 l 1961 510 l 1963 511 q 1965 518 1965 514 l 1971 524 l 1971 526 l 1974 532 l 1974 542 q 1979 547 1979 542 l 1979 542 l 1979 550 l 1979 569 l 1979 579 q 1971 603 1971 592 l 1965 603 q 1963 608 1965 606 q 1961 611 1961 610 q 1953 619 1957 615 q 1942 626 1949 624 q 1924 635 1931 635 l 1924 640 l 1913 635 l 1910 635 l 1886 635 l 1881 635 l 1876 635 l 1867 635 q 1863 626 1863 631 l 1863 593 l 1871 585 l 1886 585 l 1904 585 l 1910 579 q 1911 576 1910 578 q 1914 573 1913 575 q 1918 569 1915 571 l 1921 567 q 1924 561 1924 564 l 1918 550 l 1918 547 l 1913 542 l 1871 542 q 1867 538 1871 538 l 1863 532 l 1863 526 l 1863 489 q 1865 485 1863 486 q 1867 481 1867 485 l 1871 481 m 1974 415 q 1981 419 1978 418 q 1985 425 1985 421 q 1974 439 1985 428 q 1965 447 1967 446 q 1961 449 1964 449 l 1961 453 q 1949 463 1950 460 q 1947 471 1947 467 l 1942 471 q 1932 476 1936 476 l 1928 476 l 1918 471 l 1910 471 l 1904 471 l 1900 471 l 1894 471 q 1885 467 1890 471 q 1881 457 1881 464 l 1881 449 l 1886 449 l 1889 443 q 1889 440 1888 442 q 1894 433 1889 439 q 1900 431 1899 433 q 1904 428 1901 428 q 1918 415 1913 415 l 1918 410 l 1924 410 l 1947 410 l 1950 410 l 1971 410 l 1974 415 l 1974 415 m 2064 433 l 2069 439 l 2064 439 l 2064 443 l 2069 449 l 2064 453 l 2064 457 l 2064 463 l 2064 465 l 2064 471 l 2058 476 l 2064 476 l 2064 481 l 2064 486 l 2064 489 l 2058 489 l 2058 524 l 2058 526 q 2058 529 2057 528 q 2064 532 2058 532 l 2064 542 l 2064 547 l 2058 542 l 2058 569 l 2064 574 l 2058 574 l 2058 579 l 2058 585 l 2064 588 l 2058 593 l 2058 599 l 2064 599 q 2058 606 2058 601 q 2058 608 2057 607 l 2058 611 l 2064 611 l 2058 622 l 2058 626 q 2049 631 2054 631 l 2046 635 l 2046 631 l 2040 631 l 2035 631 l 2040 631 l 2035 631 q 2033 633 2035 631 l 2033 635 l 2032 635 l 2026 635 q 2017 631 2022 635 l 2017 635 q 2015 632 2015 633 q 2011 631 2014 631 l 2011 635 l 2008 631 l 2008 626 l 2003 626 l 2003 622 l 2003 617 l 2003 608 l 2003 603 l 2003 593 l 2003 588 l 2003 579 l 2003 585 l 2003 574 q 2000 569 2003 569 l 1997 569 l 2003 569 l 2003 565 l 2003 561 l 2003 556 l 2003 550 l 2003 547 l 2003 542 l 2003 538 l 2003 524 l 2008 524 q 2003 513 2003 518 q 2003 511 2001 511 q 2008 510 2003 510 q 2003 507 2003 510 q 2003 504 2001 506 l 2008 500 l 2008 489 l 2008 486 l 2008 481 q 2006 471 2008 476 l 2003 465 q 2003 468 2001 467 q 2008 471 2003 471 l 2008 465 l 2008 463 l 2008 457 q 2006 446 2008 454 q 2003 439 2004 442 l 2003 428 q 2003 431 2001 429 q 2008 433 2003 433 l 2003 425 l 2008 425 l 2008 419 l 2008 417 q 2011 415 2008 415 q 2011 413 2010 414 q 2017 410 2011 410 l 2022 410 q 2024 406 2022 406 l 2026 406 l 2026 410 l 2032 410 l 2035 410 l 2040 410 l 2046 410 l 2049 410 l 2058 410 l 2058 415 l 2058 410 l 2064 428 l 2064 433 l 2069 433 l 2064 433 m 2200 513 q 2202 518 2200 517 q 2204 524 2204 519 q 2207 526 2204 526 l 2210 526 l 2204 526 l 2210 526 l 2210 532 l 2214 538 l 2214 542 q 2218 544 2218 542 l 2218 547 l 2218 550 l 2224 550 l 2224 556 l 2224 561 l 2229 561 l 2232 561 l 2232 556 l 2232 561 l 2238 561 q 2236 563 2236 561 q 2232 565 2233 565 q 2235 568 2235 567 q 2236 571 2235 569 q 2238 574 2236 572 l 2238 579 q 2242 588 2238 585 l 2242 593 l 2247 593 l 2247 599 l 2247 603 q 2251 606 2249 603 q 2253 608 2251 607 l 2256 617 l 2261 617 l 2261 622 l 2261 631 l 2261 635 l 2256 635 l 2253 635 l 2238 635 l 2232 635 l 2229 635 l 2224 635 l 2218 635 l 2214 635 l 2210 635 l 2204 635 l 2200 635 l 2194 635 l 2200 635 l 2194 640 l 2194 635 l 2192 631 l 2192 635 l 2192 626 l 2192 622 l 2186 617 q 2183 610 2186 613 q 2181 608 2182 608 q 2176 603 2181 603 l 2176 599 q 2174 596 2174 597 q 2176 593 2171 593 q 2171 590 2171 593 q 2171 588 2169 589 q 2169 585 2169 586 q 2168 579 2168 583 l 2168 574 q 2163 572 2165 574 q 2158 569 2161 571 q 2153 565 2156 567 l 2154 565 q 2157 561 2157 565 l 2153 556 l 2149 556 l 2153 550 l 2149 547 l 2139 538 l 2143 538 l 2139 532 l 2139 526 l 2139 524 l 2133 518 l 2131 518 l 2131 524 l 2125 524 l 2125 526 l 2125 532 l 2119 532 l 2119 542 l 2115 542 l 2119 542 l 2115 547 l 2110 550 q 2101 556 2107 556 l 2096 556 l 2093 556 l 2093 550 l 2088 547 l 2088 542 l 2088 538 l 2088 532 l 2088 526 l 2088 524 l 2088 513 l 2088 494 l 2088 489 l 2088 486 l 2088 481 l 2088 476 l 2088 471 l 2093 471 l 2093 465 l 2096 457 l 2096 456 l 2097 456 q 2101 457 2099 456 l 2101 453 l 2101 449 l 2101 443 l 2107 443 l 2110 439 l 2110 433 l 2115 428 l 2115 426 q 2119 425 2115 425 l 2119 419 l 2125 419 q 2128 415 2125 415 l 2131 415 l 2131 410 l 2133 410 q 2143 415 2143 410 l 2149 419 l 2153 419 l 2153 425 l 2153 428 l 2153 433 q 2154 433 2153 432 q 2157 439 2157 433 l 2157 433 l 2163 449 q 2168 453 2165 449 q 2171 457 2169 454 l 2171 465 q 2174 465 2172 464 q 2176 471 2176 465 l 2176 476 l 2181 476 l 2186 476 l 2186 486 l 2186 489 l 2192 494 q 2196 506 2192 499 q 2200 513 2197 510 m 2261 428 l 2265 428 l 2265 439 l 2265 443 l 2261 443 q 2265 449 2265 443 l 2265 453 l 2261 453 q 2265 454 2265 453 l 2265 457 l 2261 463 l 2261 465 l 2261 481 l 2261 486 l 2261 489 l 2261 494 l 2261 504 l 2265 504 l 2265 507 q 2261 510 2265 510 l 2261 513 q 2258 525 2261 524 q 2253 526 2256 526 l 2247 526 l 2242 526 l 2238 524 l 2232 518 l 2232 513 l 2232 510 l 2229 510 l 2229 504 l 2224 500 l 2224 494 q 2219 496 2222 496 l 2218 496 q 2218 494 2217 494 l 2218 486 l 2218 483 q 2214 481 2218 481 l 2214 476 l 2214 471 l 2210 471 q 2207 466 2210 467 q 2204 463 2204 465 l 2204 457 l 2204 453 l 2204 449 l 2204 443 l 2204 428 l 2204 419 l 2204 410 l 2207 413 q 2214 415 2210 415 q 2215 410 2214 410 q 2218 410 2217 408 l 2224 410 l 2229 410 l 2232 410 l 2238 410 l 2242 410 l 2242 415 l 2247 415 l 2253 415 q 2254 410 2253 410 q 2256 410 2254 408 l 2261 419 l 2265 425 l 2261 428 z "},"C":{"ha":763,"x_min":22,"x_max":739,"o":"m 135 364 q 151 319 135 336 q 196 301 168 301 q 236 319 219 301 q 253 364 253 336 q 236 404 253 388 q 196 421 219 421 q 151 404 168 421 q 135 364 135 388 m 518 364 q 538 319 518 336 q 581 301 557 301 q 623 319 604 301 q 642 364 642 336 q 623 404 642 388 q 581 421 604 421 q 538 404 557 421 q 518 364 518 388 m 351 290 l 372 275 l 331 239 l 336 229 l 383 265 l 425 229 l 435 244 l 399 271 l 446 307 l 326 307 l 351 290 m 383 78 q 327 17 364 43 q 228 -10 290 -10 q 124 20 163 -10 q 65 86 86 50 q 31 182 40 128 l 31 328 q 54 290 38 310 q 97 251 69 274 q 171 203 124 228 q 107 265 136 229 q 59 336 82 294 q 31 426 36 378 q 22 572 22 510 q 25 675 22 633 q 36 757 29 722 q 104 857 68 811 q 174 928 135 894 q 253 965 213 961 q 268 962 257 965 q 279 939 279 958 l 279 768 l 347 768 l 419 768 l 482 768 l 482 939 q 493 962 482 958 q 507 965 504 965 q 589 928 550 961 q 658 857 628 894 q 725 757 694 811 q 736 675 732 722 q 738 572 739 633 q 731 426 738 510 q 703 336 726 378 q 656 265 681 294 q 590 203 626 229 q 665 251 638 228 q 707 290 692 274 q 731 328 724 310 l 731 182 q 696 86 721 128 q 636 20 675 50 q 533 -10 597 -10 q 439 17 475 -10 q 383 78 403 43 z "},"A":{"ha":907,"x_min":-47,"x_max":960,"o":"m 431 28 l 446 13 q 408 10 428 10 q 371 12 392 10 q 331 22 350 14 q 280 43 313 31 q 217 78 247 56 q 168 133 186 100 q 163 217 150 167 q 204 238 171 246 q 194 290 194 264 q 210 379 194 335 q 109 465 150 415 q 53 574 68 514 q 39 571 44 574 q 26 568 33 568 q -26 588 -6 568 q -47 636 -47 608 q -26 681 -47 664 q 26 699 -6 699 l 47 699 q 95 808 60 757 q 185 896 131 858 q 308 955 239 933 q 456 976 376 976 q 601 955 532 976 q 725 896 671 933 q 815 806 779 858 q 860 693 850 754 q 875 698 868 697 q 886 699 882 699 q 939 681 918 699 q 960 636 960 664 q 939 588 960 608 q 886 568 918 568 q 871 571 878 568 q 860 574 864 574 q 697 379 819 451 q 713 290 713 335 q 712 263 713 278 q 708 238 711 249 q 739 217 733 238 q 731 133 749 167 q 682 78 713 100 q 619 43 651 56 q 567 22 586 31 q 529 12 549 14 q 493 10 510 10 q 456 13 474 10 l 467 28 q 456 22 461 22 q 443 25 449 22 q 431 28 438 28 m 718 557 q 683 646 718 608 q 593 683 647 683 q 521 658 553 683 q 478 594 489 633 q 464 598 469 597 q 451 599 458 599 l 435 599 q 392 659 424 635 q 319 683 360 683 q 229 646 264 683 q 194 557 194 608 q 229 469 194 506 q 319 432 264 432 l 325 432 l 325 426 q 335 360 325 390 q 363 307 346 329 q 403 272 381 285 q 451 258 426 258 q 499 272 476 258 q 540 307 522 285 q 567 360 557 329 q 576 426 576 390 l 576 432 l 593 432 q 683 469 647 432 q 718 557 718 506 m 351 531 q 334 495 351 511 q 293 479 317 479 q 253 495 269 479 q 236 531 236 511 q 253 569 236 554 q 293 583 269 583 q 334 569 317 583 q 351 531 351 554 m 414 463 q 393 447 414 447 q 378 463 378 447 q 382 477 378 471 q 393 483 386 483 q 409 477 404 483 q 414 463 414 471 m 525 463 q 518 451 525 456 q 503 447 511 447 q 489 451 496 447 q 482 463 482 456 q 489 477 482 471 q 503 483 496 483 q 518 477 511 483 q 525 463 525 471 m 676 531 q 659 495 676 511 q 618 479 642 479 q 575 495 594 479 q 556 531 556 511 q 575 569 556 554 q 618 583 594 583 q 659 569 642 583 q 676 531 676 554 z "},"L":{"ha":836,"x_min":19,"x_max":819,"o":"m 268 560 q 256 594 268 579 q 225 608 243 608 q 193 594 206 608 q 181 560 181 579 q 193 529 181 542 q 225 517 206 517 q 256 529 243 517 q 268 560 268 542 m 643 575 q 630 606 643 593 q 594 618 617 618 q 563 606 575 618 q 550 575 550 593 q 563 543 550 556 q 594 531 575 531 q 630 543 617 531 q 643 575 643 556 m 492 385 l 414 342 l 336 381 q 307 326 307 357 q 335 272 307 294 q 404 249 364 249 l 404 342 l 414 342 l 419 342 l 419 249 q 495 272 464 249 q 526 326 526 294 q 517 358 526 342 q 492 385 507 374 m 414 60 l 375 1 l 342 21 l 332 6 q 299 22 326 6 q 238 71 272 38 q 172 156 204 104 q 122 278 139 207 q 120 304 122 289 q 118 342 118 319 q 208 258 160 289 q 295 211 256 226 q 360 192 335 196 q 381 190 385 189 q 270 260 315 224 q 195 330 225 296 q 149 394 165 364 q 122 443 132 424 q 131 529 126 486 q 138 607 135 572 q 142 663 140 642 q 142 686 143 685 q 91 709 111 693 q 57 747 71 725 q 36 792 43 768 q 26 842 29 817 q 31 968 19 899 l 239 847 q 276 867 254 856 q 324 888 296 876 q 390 915 351 900 l 390 939 l 419 925 l 453 939 l 453 915 q 519 888 492 900 q 567 867 547 876 q 604 847 589 856 l 808 968 q 813 842 819 899 q 802 792 810 817 q 781 747 794 768 q 747 709 768 725 q 696 686 726 693 q 697 665 696 685 q 701 613 699 644 q 708 542 704 582 q 715 463 711 503 q 696 413 710 444 q 652 344 682 382 q 574 267 622 307 q 453 190 525 226 q 474 193 449 189 q 541 214 500 197 q 631 262 582 231 q 721 346 679 293 q 720 306 721 324 q 715 278 719 289 q 666 156 699 207 q 600 71 633 104 q 540 22 567 38 q 507 6 513 6 l 492 25 l 449 1 l 414 60 z "},"S":{"ha":994,"x_min":-71,"x_max":1068,"o":"m 624 401 q 658 417 643 401 q 672 456 672 432 q 658 492 672 475 q 624 510 643 510 q 586 492 603 510 q 569 456 569 475 q 586 417 569 432 q 624 401 603 401 m 515 369 l 482 369 l 444 369 l 482 319 l 482 288 l 499 288 l 499 319 l 515 342 l 531 369 l 515 369 m 363 401 q 400 417 383 401 q 417 456 417 432 q 400 492 417 475 q 363 510 383 510 q 326 492 343 510 q 308 456 308 475 q 326 417 308 432 q 363 401 343 401 m 829 293 q 857 233 857 265 q 846 192 857 208 q 818 163 835 175 l 818 142 q 803 97 818 117 q 764 65 789 78 q 667 0 735 26 l 482 0 l 336 0 q 274 32 300 13 q 228 76 247 51 q 200 102 211 83 q 189 142 189 121 q 187 156 189 149 q 185 168 185 164 q 162 197 172 181 q 151 233 151 213 q 158 260 151 246 q 174 282 165 274 q 181 363 174 331 q 189 390 189 394 q 228 339 201 356 q 280 316 254 322 q 324 310 306 310 q 342 310 343 310 q 265 342 294 315 q 217 397 235 368 q 185 472 196 432 q 83 469 129 456 q 1 507 36 483 q -71 575 -39 533 l 174 710 l 174 715 l 174 721 q 176 785 161 754 q 222 824 190 817 q 225 828 222 825 q 228 829 226 828 q 238 842 232 838 q 249 851 244 847 q 264 894 249 875 q 303 922 279 914 q 353 928 325 938 q 367 947 356 939 q 390 960 378 956 q 435 965 414 968 q 471 949 456 961 l 482 949 l 515 949 l 531 949 q 569 965 547 961 q 613 960 592 968 q 656 928 639 951 q 704 922 683 938 q 744 892 729 914 q 758 846 758 871 q 769 829 758 840 q 786 824 781 829 q 833 785 818 817 q 835 721 847 754 q 829 710 829 715 l 1068 575 q 997 507 1036 533 q 917 469 964 483 q 813 472 871 456 q 781 397 801 432 q 733 342 763 368 q 656 310 703 315 q 719 315 689 308 q 772 339 746 322 q 813 390 797 356 q 819 366 813 394 q 829 293 825 338 z "},"G":{"ha":806,"x_min":1,"x_max":808,"o":"m 324 715 q 310 749 324 735 q 276 763 296 763 q 247 749 261 763 q 233 715 233 735 q 247 687 233 700 q 276 674 261 674 q 310 687 296 674 q 324 715 324 700 m 565 715 q 554 749 565 735 q 524 763 543 763 q 490 749 504 763 q 476 715 476 735 q 490 687 476 700 q 524 674 504 674 q 554 687 543 674 q 565 715 565 700 m 488 657 q 474 682 483 671 q 451 699 465 692 q 413 710 436 707 l 403 710 l 397 710 q 358 699 374 707 q 333 682 342 692 q 318 657 322 671 q 342 617 331 632 q 366 596 354 603 q 387 588 378 589 q 403 589 396 586 q 418 588 408 586 q 439 596 428 589 q 463 617 450 603 q 488 657 475 632 m 144 -1 q 43 88 79 35 q 17 138 28 110 q 3 198 6 165 q 12 269 1 231 q 49 351 22 307 q 94 306 67 324 q 149 276 122 288 q 213 257 179 264 q 141 296 167 275 q 101 335 115 317 q 84 369 88 354 q 81 389 81 383 q 117 563 92 479 q 143 635 128 597 q 180 707 158 672 q 229 772 201 742 q 292 826 257 803 q 263 856 278 839 q 240 890 249 872 q 231 924 231 907 q 250 953 232 940 q 306 978 283 978 q 342 962 328 978 q 365 919 357 946 q 376 864 372 892 q 385 865 381 864 q 397 868 389 865 q 411 914 401 892 q 444 932 421 936 q 483 900 481 924 q 465 853 485 876 q 474 850 469 853 q 482 847 478 847 q 515 858 497 856 q 540 853 532 861 q 540 811 564 835 q 636 697 599 765 q 694 565 674 629 q 724 451 715 500 q 735 394 732 403 q 731 372 735 388 q 713 338 726 357 q 672 298 699 318 q 603 263 646 278 q 664 282 635 269 q 716 309 689 293 q 761 351 743 325 q 798 269 788 307 q 806 198 808 231 q 793 138 804 165 q 767 88 782 110 q 667 -1 731 35 l 408 4 l 144 -1 z "},"K":{"ha":1179,"x_min":-58,"x_max":1238,"o":"m 428 490 q 406 543 428 521 q 349 565 383 565 q 297 543 319 565 q 275 490 275 521 q 297 444 275 465 q 349 422 319 422 q 406 444 383 422 q 428 490 428 465 m 899 490 q 875 543 899 521 q 818 565 851 565 q 767 543 789 565 q 746 490 746 521 q 767 444 746 465 q 818 422 789 422 q 875 444 851 422 q 899 490 899 465 m 514 446 q 535 348 514 386 q 586 310 557 310 q 633 348 611 310 q 656 446 656 386 q 649 498 656 474 q 633 541 643 522 q 611 570 624 560 q 586 581 599 581 q 535 541 557 581 q 514 446 514 501 m 157 490 q 70 513 110 497 q 2 549 31 528 q -42 595 -26 569 q -58 649 -58 621 q -37 713 -58 682 q 22 765 -15 743 q 110 801 60 788 q 218 814 161 814 l 247 814 q 401 908 311 874 q 592 943 490 943 q 784 908 694 943 q 938 814 874 874 l 965 814 q 1072 801 1022 814 q 1159 765 1122 788 q 1217 713 1196 743 q 1238 649 1238 682 q 1222 595 1238 621 q 1177 549 1206 569 q 1110 513 1149 528 q 1028 490 1072 497 q 997 431 1014 457 q 949 378 979 404 q 901 353 931 365 q 829 332 872 340 q 872 333 850 331 q 915 340 892 336 q 961 356 938 344 q 974 304 971 325 q 975 268 976 283 q 973 242 974 253 q 976 224 972 232 q 985 162 990 199 q 958 91 979 125 q 903 31 938 57 q 829 4 869 6 q 785 -1 825 0 q 694 -1 746 -1 q 636 13 665 -1 q 586 38 607 26 q 538 13 565 26 q 485 -1 510 -1 q 435 -1 460 -1 q 390 -1 410 -1 q 358 1 371 0 q 343 4 344 1 q 273 31 306 6 q 219 91 240 57 q 190 162 197 125 q 196 224 183 199 q 202 243 203 232 q 201 270 201 254 q 201 307 200 286 q 214 356 203 328 q 263 340 239 344 q 306 333 288 335 q 334 331 324 331 q 343 332 344 332 q 276 353 306 340 q 224 378 246 365 q 183 433 203 404 q 157 490 164 461 z "},"N":{"ha":943,"x_min":3,"x_max":942,"o":"m 411 421 q 348 403 372 419 q 316 364 324 386 q 317 317 308 342 q 353 275 326 293 q 424 251 381 257 q 532 258 468 244 l 538 258 q 603 290 581 264 q 625 344 626 315 q 599 398 624 374 q 522 426 574 422 q 525 400 529 411 q 510 383 522 390 q 468 378 497 375 l 464 378 q 423 382 435 375 q 408 397 411 389 q 411 421 404 407 m 392 483 q 374 528 392 511 q 328 546 356 546 q 279 528 300 546 q 258 483 258 511 q 279 438 258 456 q 328 421 300 421 q 374 438 356 421 q 392 483 392 456 m 547 483 q 568 438 547 456 q 617 421 589 421 q 660 438 640 421 q 679 483 679 456 q 660 528 679 511 q 617 546 640 546 q 568 528 589 546 q 547 483 547 511 m 926 789 q 926 694 942 731 q 883 635 910 657 q 810 594 853 610 q 867 476 849 532 q 890 372 886 421 q 888 283 894 324 q 870 212 881 242 q 850 163 860 182 q 838 138 840 143 q 800 67 815 93 q 774 25 785 40 q 754 0 761 8 l 190 0 q 172 25 183 8 q 148 67 163 40 q 111 138 133 93 q 76 224 88 181 q 63 308 65 267 q 65 385 60 349 q 78 454 69 422 q 139 594 97 529 q 64 635 94 610 q 20 694 38 657 q 17 789 3 732 q 75 879 36 857 q 153 901 114 901 q 249 878 199 900 q 305 913 271 900 q 373 933 339 926 q 435 943 407 940 q 475 946 464 946 q 511 943 483 946 q 574 933 539 940 q 643 913 608 926 q 700 878 678 900 q 796 901 750 900 q 833 897 814 901 q 871 879 853 892 q 903 845 889 867 q 926 789 918 824 z "},"E":{"ha":938,"x_min":-19,"x_max":954,"o":"m 497 76 l 406 76 l 318 10 l 261 57 q 240 29 250 42 q 225 10 232 18 q 215 4 218 1 q 100 97 144 44 q 30 205 56 150 q -6 314 4 260 q -18 409 -17 368 q -16 475 -19 450 q -11 499 -12 500 q -3 502 -11 496 q 20 519 6 508 q 52 547 35 531 q 89 579 69 563 q 190 669 133 618 l -17 556 q 74 703 25 643 q 172 803 122 764 q 269 863 221 842 q 356 892 317 883 q 424 901 396 901 q 463 900 451 901 q 497 903 469 901 q 565 899 525 906 q 655 874 606 892 q 756 817 704 856 q 858 715 808 778 q 951 556 908 651 l 744 669 q 844 579 800 618 q 881 547 863 563 q 914 519 900 531 q 937 502 928 508 q 946 499 946 496 q 951 473 947 499 q 953 406 954 447 q 941 311 951 364 q 905 203 931 258 q 835 97 879 149 q 719 4 790 44 q 713 10 719 1 q 699 29 706 18 q 678 57 689 42 l 622 10 l 535 76 l 497 76 m 246 443 q 265 398 246 415 q 313 381 285 381 q 360 398 340 381 q 379 443 379 415 q 360 492 379 475 q 313 510 340 510 q 265 492 285 510 q 246 443 246 475 m 685 443 q 667 492 685 475 q 617 510 649 510 q 569 492 589 510 q 550 443 550 475 q 569 398 550 415 q 617 381 589 381 q 667 398 649 381 q 685 443 685 415 m 354 278 q 460 278 414 276 q 499 278 479 278 q 533 280 518 279 q 559 281 549 281 q 571 283 569 282 q 584 304 586 290 q 571 333 582 318 q 542 365 560 349 q 506 393 524 381 q 476 414 489 406 q 463 422 464 422 q 437 405 461 422 q 388 364 413 388 q 349 316 363 340 q 354 278 335 292 m 539 318 q 533 305 539 311 q 518 299 526 299 q 504 305 511 299 q 497 318 497 311 q 504 331 497 326 q 518 335 511 335 q 533 331 526 335 q 539 318 539 326 m 431 318 q 424 305 431 311 q 410 299 418 299 q 397 305 403 299 q 390 318 390 311 q 397 331 390 326 q 410 335 403 335 q 424 331 418 335 q 431 318 431 326 z "},"I":{"ha":878,"x_min":-19,"x_max":903,"o":"m 742 683 q 777 696 754 679 q 815 740 800 713 q 828 803 829 768 q 792 872 826 839 q 737 908 765 900 q 682 910 708 915 q 633 888 656 904 q 598 854 611 872 q 582 819 585 836 q 592 794 579 803 q 620 779 610 785 q 639 769 631 774 q 655 760 647 765 q 676 744 663 754 q 698 723 690 732 q 712 706 706 714 q 724 693 718 699 q 742 683 731 688 m 151 683 q 172 693 165 688 q 185 706 179 699 q 197 723 190 714 q 219 744 204 732 q 244 760 235 754 q 261 769 253 765 q 280 779 269 774 q 308 794 290 785 q 318 819 321 803 q 302 854 315 836 q 266 888 289 872 q 216 910 243 904 q 160 908 189 915 q 103 872 131 900 q 69 803 69 839 q 84 740 69 768 q 120 696 99 713 q 151 683 142 679 m 669 472 q 651 516 669 497 q 604 535 632 535 q 559 516 576 535 q 542 472 542 497 q 559 433 542 450 q 604 417 576 417 q 651 433 632 417 q 669 472 669 450 m 381 463 q 360 501 381 486 q 315 515 339 515 q 270 501 288 515 q 253 463 253 486 q 270 421 253 435 q 315 407 288 407 q 360 421 339 407 q 381 463 381 435 m 397 417 q 415 369 397 388 q 460 351 432 351 q 506 369 488 351 q 525 417 525 388 q 510 461 525 442 q 475 483 496 481 l 475 472 q 472 458 475 465 q 464 450 468 450 q 451 458 456 450 q 447 472 447 465 l 447 483 q 412 461 426 481 q 397 417 397 442 m 460 0 l 292 0 q 229 19 254 1 q 192 63 204 38 q 181 117 181 89 q 197 171 182 146 q 207 193 201 178 q 219 226 213 208 q 233 263 226 244 q 247 299 240 282 q 131 404 175 340 q 86 544 86 468 q 90 585 86 564 q 99 624 93 606 q 14 690 47 647 q -19 788 -19 733 q -3 859 -19 825 q 42 918 14 893 q 109 958 71 943 q 192 972 147 972 q 324 934 267 972 q 403 833 382 896 q 428 840 415 839 q 460 840 442 840 l 486 840 q 565 935 508 897 q 692 972 621 972 q 774 958 735 972 q 841 918 813 943 q 886 859 869 893 q 903 788 903 825 q 876 699 903 739 q 808 633 850 658 q 822 592 818 614 q 825 544 825 569 q 783 405 825 468 q 669 306 740 342 q 683 266 675 286 q 697 227 690 246 q 709 193 703 208 q 719 171 715 178 q 733 117 732 146 q 722 63 733 89 q 684 19 710 38 q 619 0 658 1 l 460 0 z "},"J":{"ha":783,"x_min":-22,"x_max":806,"o":"m 579 472 q 591 444 579 457 q 619 432 603 432 q 650 444 638 432 q 663 472 663 457 q 650 503 663 492 q 619 515 638 515 q 591 503 603 515 q 579 472 579 492 m 199 472 q 187 503 199 492 q 158 515 175 515 q 128 503 140 515 q 115 472 115 492 q 128 444 115 457 q 158 432 140 432 q 187 444 175 432 q 199 472 199 457 m 121 136 q 83 246 90 189 q 81 343 76 303 q 110 279 93 306 q 144 237 128 253 q 172 215 161 221 q 181 210 182 208 q 131 287 147 250 q 107 353 114 324 q 99 403 100 383 q 99 426 99 422 q 116 476 104 443 q 139 541 128 508 q 158 597 150 574 q 164 621 165 621 q 109 642 133 625 q 66 684 85 658 q 33 742 47 710 q 10 806 19 774 q -22 976 -14 882 l 256 774 q 272 781 263 776 q 292 789 281 783 q 319 801 304 794 l 319 856 l 390 829 q 423 842 403 836 q 463 856 443 849 l 463 801 l 522 774 l 806 976 q 772 806 796 882 q 749 742 763 774 q 716 684 735 710 q 673 642 697 658 q 619 621 649 625 q 626 595 618 621 q 646 535 635 569 q 668 469 657 501 q 685 422 679 436 q 683 394 685 414 q 674 346 682 374 q 649 283 667 318 q 601 210 632 247 q 610 215 600 208 q 636 237 621 221 q 668 279 651 253 q 697 343 685 306 q 699 246 706 303 q 663 136 693 189 q 647 113 663 133 q 610 67 631 92 q 570 22 589 42 q 546 1 551 1 l 407 1 q 401 2 404 1 q 393 7 397 3 q 392 5 393 6 q 392 3 392 4 l 392 1 q 390 1 390 0 l 232 1 q 208 22 226 1 q 171 67 190 42 q 136 113 151 92 q 121 136 121 133 m 269 225 q 261 205 269 214 q 242 196 253 196 q 234 198 238 196 q 228 200 231 200 q 223 189 224 197 q 222 174 222 181 q 269 101 222 131 q 385 71 315 71 q 445 79 417 71 q 495 101 474 88 q 529 134 517 115 q 542 174 542 153 q 541 187 542 181 q 536 200 540 193 q 528 196 536 196 q 510 205 517 196 q 504 225 504 214 q 505 231 504 228 q 508 238 506 235 q 385 279 460 279 q 315 269 346 279 q 260 242 285 260 q 266 235 263 239 q 269 225 269 232 z "},"Q":{"ha":925,"x_min":-47,"x_max":961,"o":"m 253 496 q 240 528 253 515 q 208 540 228 540 q 178 528 192 540 q 165 496 165 515 q 178 464 165 476 q 208 451 192 451 q 240 464 228 451 q 253 496 253 476 m 743 492 q 731 523 743 510 q 699 536 718 536 q 667 523 679 536 q 656 492 656 510 q 667 460 656 472 q 699 447 679 447 q 731 460 718 447 q 743 492 743 472 m 239 253 q 266 168 239 194 q 329 135 293 142 q 401 133 365 128 q 453 144 436 139 q 504 133 469 139 q 574 135 539 128 q 635 168 608 142 q 661 253 661 194 q 644 286 656 271 q 619 309 635 299 q 581 322 604 319 q 492 317 521 329 q 453 293 463 304 q 411 317 442 304 q 324 322 381 329 q 283 309 300 319 q 257 286 267 299 q 239 253 244 271 m 194 817 q 172 845 179 828 q 175 882 164 863 q 198 924 185 908 q 224 947 211 939 q 253 961 239 957 q 247 919 249 939 q 249 888 246 903 q 264 867 253 872 q 290 857 275 863 q 324 847 306 851 q 389 868 354 858 q 457 878 424 878 q 526 868 490 878 q 590 847 561 858 q 624 857 610 851 q 651 867 639 863 q 665 888 661 872 q 667 919 668 903 q 661 961 665 939 q 690 947 675 957 q 717 924 703 939 q 743 882 732 908 q 743 845 751 863 q 719 817 735 828 l 961 817 q 925 742 950 776 q 864 686 903 713 q 760 654 825 660 q 761 644 758 654 q 769 619 764 635 q 781 583 774 603 q 794 542 788 563 l 833 431 q 850 331 846 382 q 845 235 853 286 q 808 135 838 183 q 790 113 807 133 q 751 67 772 92 q 710 22 729 42 q 685 1 690 1 q 613 3 654 1 q 531 6 572 6 q 493 15 514 6 q 457 36 472 25 q 426 15 442 25 q 392 6 411 6 q 307 3 351 6 q 229 1 263 1 q 201 22 221 1 q 160 67 181 42 q 122 113 139 92 q 106 135 106 133 q 67 235 76 183 q 61 331 58 286 q 75 431 63 382 q 115 542 99 493 q 129 583 122 563 q 142 619 136 603 q 150 644 147 635 q 151 654 153 654 q 47 686 85 660 q -12 742 8 713 q -47 817 -37 776 l 194 817 m 621 253 q 614 236 621 243 q 596 229 607 229 q 577 236 585 229 q 569 253 569 243 q 596 278 569 278 q 621 253 621 278 m 335 253 q 325 236 335 243 q 304 229 315 229 q 286 236 293 229 q 279 253 279 243 q 304 278 279 278 q 325 271 315 278 q 335 253 335 264 z "},"T":{"ha":875,"x_min":15,"x_max":856,"o":"m 413 6 l 258 0 q 177 112 200 60 q 150 201 154 164 q 158 282 144 246 q 111 194 133 231 q 72 141 92 163 q 43 132 53 119 q 18 194 15 163 q 37 275 21 225 q 72 403 53 325 q 97 607 90 481 q 126 747 101 688 q 186 846 151 806 q 262 911 221 886 q 339 950 303 936 q 401 969 375 964 q 435 976 428 975 q 470 969 443 975 q 534 950 497 964 q 612 911 571 936 q 688 846 653 886 q 747 747 722 806 q 776 607 772 688 q 791 460 781 522 q 813 353 801 399 q 836 274 825 307 q 851 217 847 242 q 851 173 856 193 q 826 132 846 153 q 800 141 818 119 q 763 194 782 163 q 715 282 740 231 q 724 201 729 246 q 697 112 719 164 q 617 0 675 60 l 457 6 q 531 46 488 18 q 617 126 575 74 q 691 259 658 178 q 732 458 724 340 q 736 544 736 506 q 728 610 736 583 q 703 649 721 636 q 656 657 686 661 q 609 640 626 654 q 585 601 592 625 q 581 544 579 576 q 594 475 583 513 q 581 435 599 458 q 538 390 564 411 q 482 356 511 369 q 435 347 453 343 q 386 356 415 343 q 330 390 357 369 q 285 435 303 411 q 274 475 268 458 q 286 544 283 513 q 282 601 289 576 q 257 640 275 625 q 208 657 239 654 q 163 649 179 661 q 138 610 146 636 q 129 544 131 583 q 131 458 128 506 q 174 259 140 340 q 251 126 208 178 q 337 46 293 74 q 413 6 381 18 m 429 425 q 467 435 446 422 q 508 467 489 447 q 542 508 528 486 q 556 546 556 529 q 542 563 557 558 q 507 569 528 568 q 464 567 486 569 q 429 563 442 564 q 397 567 418 564 q 355 569 376 569 q 317 563 333 568 q 301 546 301 558 q 318 508 303 529 q 353 467 333 486 q 393 435 372 447 q 429 425 414 422 m 583 535 q 598 570 583 556 q 633 585 613 585 q 668 570 654 585 q 682 535 682 556 q 668 500 682 514 q 633 486 654 486 q 598 500 613 486 q 583 535 583 514 m 181 535 q 195 570 181 556 q 231 585 210 585 q 265 570 251 585 q 279 535 279 556 q 265 500 279 514 q 231 486 251 486 q 195 500 210 486 q 181 535 181 514 z "},"U":{"ha":997,"x_min":-35,"x_max":1038,"o":"m 501 36 l 438 1 l 299 1 q 243 111 267 53 q 207 228 222 161 q 197 369 192 294 q 214 334 203 354 q 242 300 225 314 q 282 284 258 286 q 338 306 306 282 q 353 317 346 313 q 367 329 360 322 q 363 313 364 322 q 363 294 363 303 q 387 224 363 257 q 451 181 411 192 q 474 181 463 176 q 493 192 485 186 q 474 196 485 192 q 457 200 464 200 q 444 210 450 204 q 438 221 438 217 q 444 228 438 224 q 457 235 450 232 q 501 244 474 244 q 542 235 525 244 q 555 228 549 232 q 561 221 561 224 q 555 210 561 217 q 542 200 549 204 q 527 196 535 200 q 511 192 519 192 q 534 184 522 186 q 557 185 546 182 q 618 226 594 196 q 642 294 642 257 q 631 344 642 321 q 600 383 619 367 q 555 410 581 400 q 501 419 529 419 q 460 413 479 419 q 426 400 442 407 q 448 471 446 436 q 442 537 450 506 q 417 594 433 568 q 385 639 401 621 q 356 666 368 657 q 342 672 343 675 q 309 628 326 654 q 274 577 292 603 q 242 527 257 551 q 218 489 228 503 l 218 486 q 217 483 218 485 q 214 479 215 482 q 258 493 233 493 q 315 472 292 493 q 338 419 338 450 q 315 363 338 386 q 258 340 292 340 q 209 360 231 340 q 183 408 188 379 q 159 337 172 376 q 131 265 146 297 q 96 215 115 232 q 54 210 76 197 q -17 290 0 242 q -29 394 -35 339 q -1 504 -24 449 q 49 608 22 560 q 101 690 76 656 q 138 738 126 725 q 176 778 151 750 q 240 838 200 807 q 339 900 281 869 q 476 947 397 931 q 485 949 476 949 q 505 950 494 950 q 525 949 515 950 q 536 947 535 949 q 667 901 611 932 q 762 838 722 871 q 826 774 801 804 q 865 728 851 743 q 901 685 876 717 q 951 609 925 653 q 999 513 976 565 q 1030 410 1022 461 q 1025 311 1038 358 q 969 231 1013 264 q 917 226 943 211 q 867 272 890 240 q 825 345 844 304 q 794 419 806 386 q 772 476 794 453 q 715 499 750 499 q 664 476 686 499 q 642 419 642 453 q 664 367 642 389 q 715 344 686 344 q 769 364 746 344 q 794 408 792 383 q 794 255 807 328 q 761 125 782 182 q 701 1 736 58 l 561 1 l 501 36 z "},"V":{"ha":836,"x_min":22,"x_max":819,"o":"m 365 360 l 354 346 l 415 299 l 483 340 l 468 360 l 415 324 l 365 360 m 190 376 q 210 329 190 349 q 257 310 229 310 q 306 329 289 310 q 324 376 324 349 q 306 424 324 404 q 257 443 289 443 q 210 424 229 443 q 190 376 190 404 m 514 382 q 532 334 514 354 q 581 314 550 314 q 628 334 608 314 q 649 382 649 354 q 628 428 649 408 q 581 449 608 449 q 532 428 550 449 q 514 382 514 408 m 411 1 l 401 1 l 165 1 q 90 6 122 -1 q 42 29 63 13 q 29 82 22 46 q 42 132 33 101 q 60 200 50 163 q 83 278 71 238 q 107 360 94 319 q 168 561 135 454 l 179 829 q 192 900 179 868 q 227 950 203 928 q 299 972 251 972 q 374 946 340 972 q 407 869 407 919 l 411 592 l 421 567 l 426 592 l 432 869 q 465 946 432 919 q 544 972 499 972 q 613 950 589 972 q 649 900 638 928 q 664 829 663 868 l 668 561 q 732 360 703 454 q 757 278 744 319 q 781 200 769 238 q 800 132 792 163 q 813 82 808 101 q 801 29 819 46 q 754 6 782 13 q 679 1 722 -1 l 411 1 z "},"p":{"ha":1968,"x_min":40,"x_max":1931,"o":"m 981 271 q 983 269 982 271 q 985 267 985 268 q 988 264 986 265 l 988 250 l 988 246 q 981 239 988 239 l 978 239 q 976 246 976 242 l 976 264 q 981 271 976 271 m 939 297 l 936 297 l 939 297 m 1094 264 q 1090 257 1094 257 l 1083 257 l 1083 271 l 1090 271 q 1094 264 1094 271 m 1090 249 q 1097 246 1097 249 q 1090 239 1097 239 l 1083 239 l 1083 249 l 1090 249 l 1090 249 m 736 268 l 736 264 l 736 254 l 736 246 q 729 239 736 239 l 724 239 l 724 271 l 729 271 q 736 268 733 271 m 1138 271 q 1144 264 1144 271 l 1144 250 l 1144 246 q 1142 239 1144 239 l 1135 239 l 1135 246 l 1135 264 q 1138 271 1135 271 m 1807 692 q 1856 682 1833 692 q 1894 656 1878 672 q 1921 617 1911 639 q 1931 569 1931 594 l 1931 126 q 1895 39 1931 75 q 1807 3 1860 3 l 164 3 q 76 39 113 3 q 40 126 40 75 l 40 569 q 50 617 40 594 q 76 656 60 639 q 116 682 93 672 q 164 692 139 692 l 1807 692 l 1807 692 m 1038 419 q 1039 418 1038 418 l 1042 418 q 1043 414 1042 414 l 1044 414 l 1051 414 l 1065 414 l 1068 414 l 1069 414 q 1072 418 1072 414 l 1068 418 l 1072 418 l 1074 418 l 1078 418 l 1074 418 l 1074 414 l 1072 414 l 1072 418 l 1074 414 l 1078 414 l 1081 414 l 1083 414 l 1097 414 l 1104 414 l 1107 414 q 1111 415 1111 414 l 1111 418 l 1111 419 q 1114 421 1111 419 l 1118 424 l 1114 424 l 1114 428 l 1114 431 l 1114 438 l 1114 444 l 1118 444 l 1117 444 q 1114 446 1115 444 l 1114 450 l 1111 450 l 1107 453 l 1101 453 l 1097 453 l 1090 453 l 1088 453 l 1083 453 l 1078 453 l 1044 450 l 1043 450 q 1042 446 1042 450 q 1039 444 1039 446 l 1039 442 l 1039 435 l 1039 431 l 1039 428 l 1039 421 l 1038 419 m 1104 374 l 1104 376 l 1104 381 l 1104 383 l 1104 390 l 1104 394 l 1097 397 l 1090 397 q 1086 399 1088 399 q 1083 397 1083 399 l 1081 397 l 1078 397 l 1074 397 l 1072 397 l 1068 397 l 1063 397 l 1058 397 l 1049 397 q 1042 390 1042 393 l 1039 388 l 1039 383 l 1042 376 l 1042 374 l 1042 371 l 1042 360 l 1042 358 q 1044 353 1042 356 l 1049 353 l 1051 353 l 1056 353 l 1058 353 l 1083 353 l 1088 353 l 1090 353 l 1094 353 l 1097 353 l 1097 357 l 1101 357 q 1104 361 1104 360 l 1104 364 l 1104 367 l 1104 371 l 1104 374 m 624 438 q 617 425 618 426 q 617 421 617 424 l 617 414 l 621 414 q 633 394 631 397 l 638 394 l 644 388 l 647 390 q 652 396 650 393 q 654 404 654 399 q 663 413 660 410 q 668 421 665 415 q 672 424 671 424 q 674 431 674 425 l 678 431 q 682 444 682 440 q 681 447 682 446 q 681 450 681 447 l 681 453 l 678 453 l 674 453 l 671 453 l 647 453 l 647 457 l 644 453 l 638 450 q 632 445 635 447 q 624 438 629 443 m 379 301 l 379 444 l 376 450 l 372 450 q 363 453 369 453 l 342 453 l 342 450 l 340 450 q 339 446 339 450 l 335 446 l 335 301 l 342 294 l 346 294 l 349 294 l 353 294 l 372 294 l 379 301 m 465 394 q 468 400 468 397 l 468 403 q 465 411 468 403 l 461 421 l 461 424 l 458 424 l 458 431 l 449 442 q 445 445 446 444 q 442 446 444 446 l 435 446 l 432 450 l 425 453 l 421 453 l 414 453 l 401 453 q 388 450 390 453 l 388 446 l 388 435 l 388 431 l 388 428 l 388 424 l 388 421 l 388 418 l 390 418 q 401 414 394 414 l 404 414 q 407 415 406 414 q 411 418 410 418 l 414 414 l 418 414 l 421 411 q 425 408 425 411 l 425 407 l 428 400 q 425 390 428 397 q 421 383 421 388 q 417 381 418 381 l 414 381 l 411 381 l 411 383 l 404 383 l 401 383 q 390 376 390 383 l 388 376 l 388 374 l 388 357 l 388 353 q 390 347 388 347 q 401 344 394 344 l 404 344 l 418 344 l 421 344 q 432 349 426 346 q 435 350 433 350 l 438 350 q 441 351 440 350 q 444 353 442 353 l 458 367 l 461 374 q 465 383 461 381 l 465 388 l 465 394 l 465 394 m 521 301 l 521 311 l 521 315 l 521 364 l 518 364 l 518 411 l 518 414 l 518 446 l 514 450 q 504 453 511 453 l 497 453 l 482 453 l 482 450 q 479 446 479 444 l 479 444 l 479 442 l 479 353 l 479 350 l 479 344 l 479 342 l 479 335 l 479 304 l 482 301 l 482 297 l 483 294 l 490 294 q 492 292 490 292 l 494 292 l 496 292 q 497 294 496 292 l 507 294 l 514 294 l 518 294 l 518 297 l 521 301 m 603 335 l 583 367 l 575 374 l 575 367 q 571 360 571 364 q 569 359 569 360 q 567 358 568 358 l 565 357 l 565 353 q 563 351 564 353 l 561 351 l 561 350 q 558 346 558 347 q 554 342 557 344 l 544 332 l 542 328 l 542 325 l 538 325 l 538 321 q 535 313 535 314 q 535 308 535 311 q 538 297 535 304 q 544 294 538 294 l 547 294 l 544 294 l 551 294 l 561 294 l 565 294 l 568 294 q 578 297 575 294 q 579 303 578 301 q 582 304 581 304 l 586 311 l 590 318 l 597 325 q 599 329 597 328 q 600 332 599 331 l 603 335 m 682 254 l 644 254 l 638 249 l 678 249 l 682 254 m 686 315 l 682 315 l 681 321 q 677 326 678 324 q 674 332 676 329 l 668 339 l 668 342 q 663 346 665 344 q 657 350 660 347 l 657 353 q 654 354 654 353 l 654 357 l 650 360 q 647 361 647 360 l 647 364 l 644 367 l 644 371 l 640 371 l 640 372 q 638 374 640 372 q 635 378 638 376 q 633 383 633 381 l 631 388 q 624 397 624 392 q 621 399 621 397 l 621 400 l 621 404 q 613 413 615 410 q 607 421 610 415 q 603 422 604 421 q 600 424 603 424 l 597 431 l 586 444 q 582 450 586 450 l 575 453 l 578 450 q 573 451 575 450 q 568 453 571 453 l 571 453 l 547 453 l 544 453 l 538 453 l 538 450 l 538 444 l 538 435 l 539 435 q 542 431 542 435 q 546 425 543 431 q 547 421 547 422 l 551 421 q 556 415 553 418 q 561 411 557 411 l 561 407 q 567 397 564 401 q 571 390 571 393 l 575 390 l 575 388 l 578 383 l 582 381 q 583 377 582 378 q 583 375 583 376 l 583 374 l 583 371 l 586 371 l 593 360 l 594 360 q 597 357 597 360 l 600 350 l 607 344 l 610 342 q 613 336 610 339 q 617 332 614 333 l 621 328 l 621 325 l 624 325 l 626 321 l 626 315 l 633 308 l 638 304 q 641 299 640 301 q 644 297 642 297 l 640 297 q 644 296 643 297 q 647 294 644 294 l 654 294 l 657 294 l 668 294 l 671 294 l 674 294 q 682 301 679 294 q 684 305 682 304 q 686 308 686 306 l 686 315 m 703 294 l 724 294 l 726 294 l 729 294 l 733 294 l 736 301 l 736 315 l 736 318 l 736 328 l 736 431 l 740 438 l 740 442 q 738 446 740 444 q 733 450 736 447 l 733 453 l 729 453 l 726 453 l 724 453 l 713 453 l 710 453 l 703 450 q 696 444 700 446 l 696 431 l 696 418 l 696 332 l 696 318 l 693 311 l 693 308 l 696 304 l 696 301 l 696 297 l 700 294 l 703 294 m 747 242 q 749 249 747 247 q 750 254 750 251 q 749 260 750 257 q 747 268 747 263 q 743 274 747 271 q 733 281 743 281 l 717 281 q 714 279 715 281 l 713 279 l 713 278 l 713 232 l 713 231 q 717 229 713 229 l 736 229 q 747 242 747 229 m 757 450 q 753 435 753 446 q 757 414 753 418 l 760 414 l 771 414 l 774 414 l 776 414 l 779 414 l 786 414 l 810 414 l 815 414 l 819 414 l 822 418 l 826 421 l 829 424 l 829 438 l 826 438 q 828 442 826 442 l 829 442 l 826 444 l 826 446 l 826 450 l 822 453 l 819 453 l 813 453 l 796 453 l 774 453 l 771 453 l 767 453 l 760 453 l 757 450 l 757 450 m 806 353 q 810 355 808 353 q 815 357 813 357 l 815 360 l 819 360 l 819 364 l 819 381 l 819 383 q 806 397 819 397 l 803 397 l 796 397 l 792 397 l 774 397 l 771 397 l 767 397 l 760 397 l 757 394 q 753 383 753 390 l 753 381 l 753 374 l 753 371 l 753 364 q 757 357 753 360 q 761 353 758 353 l 764 353 l 771 353 q 774 357 771 357 l 806 353 l 806 353 m 753 297 q 761 294 758 294 l 764 294 l 774 294 l 789 294 l 792 297 l 819 297 l 822 297 l 829 304 l 829 308 l 829 332 l 826 332 l 822 335 l 819 335 l 819 339 l 815 339 q 813 335 813 339 l 792 335 l 789 335 l 786 335 l 760 335 l 757 332 q 753 321 753 328 l 753 318 l 753 315 l 753 301 l 753 297 m 792 239 q 796 240 796 239 l 796 242 q 792 249 796 247 q 782 257 789 251 q 774 268 774 263 l 774 271 l 776 271 q 781 270 779 271 q 786 264 783 269 q 792 271 789 268 l 792 274 q 776 281 782 281 l 774 281 q 764 274 768 281 l 764 268 q 774 250 764 256 q 782 242 782 247 l 782 239 l 779 236 q 771 242 776 236 q 768 246 771 246 l 767 246 q 764 239 764 242 l 760 239 l 760 238 q 764 236 760 236 l 764 232 q 766 231 765 232 q 768 231 767 231 q 771 229 769 229 l 779 229 q 792 239 792 229 m 843 254 l 839 254 l 826 254 l 826 249 l 829 249 l 829 242 q 826 239 829 239 l 819 239 l 819 246 l 819 264 q 822 271 819 271 q 829 264 829 271 l 839 264 l 839 268 q 836 274 839 271 q 822 281 832 281 q 816 278 819 281 q 810 274 813 276 l 810 268 q 806 257 807 263 q 806 242 806 251 q 808 239 806 239 q 810 236 810 239 q 822 229 813 229 l 826 229 q 839 239 839 229 q 843 249 843 242 l 843 254 m 885 278 l 885 281 l 876 281 l 876 254 q 872 270 874 265 q 867 278 869 275 l 867 279 l 865 279 q 863 281 864 279 l 857 281 l 853 278 l 853 232 q 854 229 853 229 l 857 229 l 863 229 l 863 254 q 867 246 865 249 q 871 240 869 243 q 874 236 872 238 q 878 229 876 229 l 882 229 q 886 231 885 229 q 885 232 888 232 l 885 278 m 885 321 l 885 328 q 886 329 886 328 q 885 332 886 332 l 885 335 l 885 339 l 885 342 l 885 347 l 885 350 l 885 353 l 885 357 l 885 360 l 885 364 l 885 367 l 885 371 l 885 381 l 885 383 l 885 388 l 885 390 l 885 400 l 885 397 l 885 404 l 885 407 l 885 411 l 885 414 l 885 418 l 885 421 l 885 428 l 885 435 l 885 442 l 885 444 l 885 446 l 882 446 q 878 450 882 450 l 878 453 l 874 453 l 876 457 l 875 457 q 869 453 874 457 q 867 454 868 454 l 867 453 q 864 454 865 454 q 863 453 863 454 l 860 453 l 857 453 l 853 453 l 850 453 l 843 453 l 843 450 q 842 447 842 450 q 843 446 842 446 l 842 446 l 842 444 l 843 444 l 843 442 l 843 438 l 843 435 l 843 424 l 843 428 l 843 424 l 843 421 l 843 418 q 840 407 843 415 q 839 400 839 403 l 843 404 q 840 399 843 401 l 839 397 l 843 397 l 843 394 l 843 390 l 843 388 l 843 383 l 843 376 l 843 371 q 840 365 843 368 l 839 364 l 843 364 l 843 360 l 843 357 l 843 353 l 843 350 l 843 347 l 839 344 l 843 344 l 843 342 l 843 339 l 843 335 l 843 332 l 843 328 l 843 325 l 843 321 l 843 318 q 840 315 843 315 l 839 315 l 843 311 l 843 308 l 843 301 l 843 297 l 846 294 l 850 294 l 853 292 l 853 294 l 857 294 l 860 294 l 863 294 l 867 294 l 869 294 l 874 294 l 876 294 l 882 294 l 882 297 q 883 296 882 296 l 885 297 l 885 304 l 885 308 l 885 318 l 885 321 m 908 236 l 908 239 l 901 239 l 900 239 q 899 236 899 239 l 899 232 q 900 229 899 229 l 901 229 l 908 229 l 908 232 l 908 236 m 899 250 q 900 249 899 249 l 901 249 l 908 249 l 908 250 l 908 254 l 908 257 l 906 257 l 901 257 l 900 257 q 899 254 899 257 l 899 250 l 899 250 m 956 242 l 946 246 q 939 239 946 239 l 938 239 q 936 242 936 239 q 932 243 932 242 l 932 246 l 932 264 q 939 271 932 271 q 942 269 942 271 q 946 264 943 267 l 953 264 l 956 264 l 956 268 q 954 271 956 271 q 953 274 953 271 q 939 281 946 281 q 925 274 932 281 q 924 271 925 271 q 922 268 922 271 l 922 242 q 925 236 922 239 q 939 229 925 229 l 942 229 q 956 239 956 229 l 956 242 m 963 297 l 969 297 l 969 301 l 972 308 q 974 310 974 308 q 972 311 974 310 l 976 315 l 972 315 l 972 318 l 972 321 l 972 325 l 972 335 l 972 332 l 976 339 l 969 339 l 969 340 l 968 340 q 965 342 967 340 l 965 339 l 963 342 l 960 339 l 960 342 l 956 342 l 953 342 l 953 339 q 949 342 953 342 l 946 342 l 943 342 q 942 339 942 342 l 939 339 l 936 339 l 932 339 l 929 339 l 925 339 q 922 342 922 339 l 918 342 l 915 342 q 915 339 913 342 l 913 339 l 908 342 q 906 343 907 343 l 906 342 l 901 335 q 899 328 901 332 l 899 325 l 894 325 q 897 322 894 322 q 899 318 899 321 l 899 321 l 899 318 l 899 315 l 899 311 l 899 308 l 899 304 l 899 301 l 901 301 l 901 297 q 904 296 903 296 q 908 294 906 294 l 915 294 q 918 293 917 294 l 918 292 l 918 294 l 922 294 l 925 294 l 929 294 l 929 297 l 925 297 l 925 301 l 929 301 q 931 297 929 297 l 932 297 l 929 297 l 932 297 l 936 297 l 939 297 l 942 297 l 946 297 l 949 297 l 953 297 l 956 297 l 960 297 l 963 297 m 997 249 l 997 264 q 994 274 994 268 q 981 281 990 281 q 974 278 978 281 q 969 274 969 276 q 965 268 965 271 l 965 242 l 965 236 q 971 230 968 231 q 978 229 974 229 l 981 229 l 992 229 q 997 242 997 235 l 997 249 m 1008 294 l 1011 294 l 1018 294 l 1021 297 q 1025 304 1025 301 l 1025 308 l 1025 311 l 1025 315 l 1025 318 l 1025 321 l 1025 328 l 1025 332 l 1025 335 l 1028 347 l 1025 344 q 1026 350 1025 349 q 1028 353 1026 351 l 1025 353 q 1028 354 1028 353 l 1028 357 l 1025 353 l 1028 364 l 1025 360 q 1026 363 1025 360 l 1026 364 l 1025 364 l 1025 367 l 1025 371 l 1025 374 l 1021 376 l 1025 381 l 1025 411 l 1021 414 l 1028 418 l 1026 418 q 1025 421 1025 418 l 1021 421 l 1021 424 q 1025 428 1025 424 l 1025 431 l 1025 444 l 1021 444 l 1021 446 q 1015 450 1021 450 q 1013 453 1015 453 l 1011 453 l 1008 450 q 1006 451 1007 450 l 1004 451 l 1004 450 l 1001 450 l 992 450 q 989 451 990 451 q 988 450 986 451 l 986 450 q 985 446 985 450 q 982 444 983 446 l 981 444 l 981 442 l 981 438 l 981 435 l 981 431 l 981 428 l 981 424 l 981 418 l 978 407 l 981 407 q 978 403 978 404 l 978 400 l 981 404 q 978 399 978 399 l 978 397 l 981 400 l 981 388 l 978 383 l 985 383 q 982 382 983 382 q 981 383 981 382 l 981 332 l 981 325 l 985 315 q 982 314 983 314 q 981 315 979 314 l 981 308 l 981 304 l 985 301 q 994 294 985 294 l 997 294 l 1001 294 l 1008 294 m 1063 279 l 1061 279 q 1058 281 1060 279 l 1051 281 l 1051 278 l 1044 249 l 1042 249 l 1035 278 l 1035 281 l 1028 281 q 1025 278 1025 281 l 1028 264 l 1025 249 l 1021 249 l 1015 278 l 1015 281 l 1008 281 q 1004 278 1004 281 l 1015 232 l 1018 229 l 1025 229 q 1028 232 1028 229 q 1031 235 1029 232 q 1035 246 1033 240 l 1035 232 q 1038 231 1035 232 l 1039 231 l 1039 229 l 1049 229 l 1050 229 q 1051 232 1050 229 l 1063 278 l 1063 279 m 1104 232 q 1107 242 1107 236 q 1101 254 1107 254 q 1107 268 1107 254 l 1107 274 q 1094 281 1103 281 l 1078 281 q 1075 279 1076 281 l 1074 279 l 1074 278 l 1074 232 l 1074 231 q 1078 229 1074 229 l 1097 229 q 1104 232 1104 229 m 1154 249 l 1154 264 q 1151 274 1154 271 q 1138 281 1151 281 q 1125 274 1129 281 q 1121 268 1125 271 l 1121 242 q 1125 236 1121 239 q 1138 229 1128 229 l 1142 229 l 1149 229 q 1154 242 1154 232 l 1154 249 m 1165 360 l 1165 367 l 1165 376 q 1160 382 1163 379 q 1154 390 1157 385 l 1154 394 l 1151 400 q 1149 407 1151 404 q 1145 409 1146 407 q 1142 411 1144 411 l 1139 408 q 1135 407 1138 407 l 1135 404 q 1133 399 1135 401 q 1131 394 1131 397 l 1131 390 l 1128 388 l 1128 383 l 1125 381 q 1121 371 1121 376 l 1121 367 q 1118 363 1118 367 l 1118 360 q 1115 356 1117 357 q 1114 350 1114 353 l 1111 350 l 1107 342 l 1107 339 q 1103 329 1106 332 l 1101 328 l 1101 325 q 1097 315 1097 321 l 1094 315 l 1097 315 q 1094 304 1094 311 l 1094 301 l 1094 297 l 1097 297 l 1097 294 l 1101 294 l 1104 294 l 1107 294 l 1125 294 l 1128 294 l 1131 294 l 1135 294 l 1138 301 q 1142 303 1142 301 l 1142 304 l 1149 321 l 1149 325 l 1149 328 q 1153 335 1150 329 q 1154 339 1154 338 l 1154 342 l 1154 344 l 1158 347 l 1158 350 q 1160 353 1158 353 l 1161 353 l 1165 360 m 1197 281 l 1190 281 q 1186 278 1186 281 l 1181 264 l 1174 278 l 1174 279 l 1172 281 l 1165 281 l 1165 278 q 1167 271 1165 275 q 1169 264 1168 268 q 1174 254 1171 260 l 1174 232 l 1176 229 l 1181 229 q 1183 231 1183 229 l 1183 232 l 1183 254 l 1197 281 m 1238 239 q 1240 240 1240 239 l 1240 242 q 1228 257 1240 249 q 1217 268 1217 264 l 1217 271 l 1221 271 q 1231 264 1228 271 l 1233 264 q 1238 271 1233 268 l 1238 274 q 1229 278 1232 276 q 1221 281 1226 281 q 1210 274 1210 281 q 1207 268 1207 271 q 1217 250 1207 256 q 1228 242 1228 247 l 1228 239 l 1224 236 q 1214 242 1219 236 q 1211 246 1214 246 l 1210 246 q 1207 239 1207 242 l 1204 239 l 1204 238 q 1207 236 1204 236 l 1210 232 l 1214 229 l 1224 229 q 1238 239 1238 229 m 1257 294 q 1261 304 1261 297 l 1261 307 q 1260 310 1261 308 q 1257 315 1258 313 l 1257 318 l 1257 321 l 1257 325 q 1253 333 1254 331 q 1251 339 1251 336 l 1249 342 q 1244 344 1246 344 q 1242 353 1244 349 q 1240 360 1240 357 q 1239 364 1240 361 q 1236 367 1238 367 q 1233 371 1235 368 l 1233 381 l 1233 383 q 1229 387 1231 386 q 1228 390 1228 388 l 1228 394 l 1224 400 l 1221 404 l 1221 411 l 1217 414 l 1214 418 l 1214 424 l 1207 438 l 1207 444 q 1200 453 1207 449 l 1197 453 l 1190 453 l 1186 453 l 1165 453 l 1161 450 q 1158 446 1158 444 l 1158 444 q 1165 431 1158 442 l 1167 429 q 1167 426 1167 428 q 1168 424 1168 425 l 1168 421 l 1172 414 q 1174 407 1174 411 l 1176 400 l 1176 397 q 1181 392 1181 397 l 1181 388 l 1183 383 l 1186 374 l 1190 364 l 1193 360 l 1193 357 l 1197 357 l 1197 353 l 1193 353 l 1192 353 q 1190 350 1190 353 l 1183 350 q 1181 342 1181 347 l 1181 339 l 1176 335 l 1176 332 l 1174 328 l 1174 325 l 1174 318 l 1176 315 l 1176 311 l 1190 311 l 1190 313 q 1193 315 1190 315 l 1210 315 l 1210 311 q 1213 310 1210 311 l 1214 310 l 1214 308 q 1215 304 1214 304 l 1217 304 l 1217 301 l 1217 297 l 1221 294 l 1224 294 l 1231 294 l 1238 294 l 1240 294 l 1254 294 l 1257 294 l 1257 294 m 1296 257 l 1293 257 l 1283 257 l 1276 257 l 1276 250 l 1279 250 l 1290 249 q 1293 250 1293 249 l 1296 250 l 1296 257 m 1313 394 l 1317 394 q 1314 397 1317 397 l 1313 397 l 1313 442 l 1313 446 l 1310 450 l 1307 453 l 1303 453 l 1286 453 l 1283 453 l 1276 453 q 1272 449 1272 450 l 1272 446 q 1271 442 1271 444 l 1271 438 l 1271 325 l 1272 325 q 1271 322 1271 325 l 1271 321 l 1271 301 l 1272 301 q 1276 294 1276 297 l 1286 294 l 1290 294 l 1296 294 l 1300 294 l 1303 294 l 1307 294 q 1311 298 1310 297 q 1313 301 1313 299 l 1317 301 l 1317 304 l 1317 332 l 1314 332 q 1313 335 1313 332 l 1313 364 l 1317 367 l 1314 367 q 1313 371 1313 367 l 1313 381 l 1314 381 q 1317 383 1317 381 l 1317 394 l 1313 394 m 1336 344 l 1350 344 l 1364 344 q 1371 347 1371 344 l 1372 347 l 1375 347 l 1382 350 q 1389 353 1386 353 l 1399 360 l 1399 364 l 1400 365 q 1403 371 1403 368 l 1406 374 l 1406 376 l 1410 381 l 1410 388 q 1413 390 1413 388 l 1413 388 l 1413 394 l 1413 407 l 1413 414 q 1408 422 1410 419 q 1406 431 1406 425 l 1403 431 q 1400 436 1403 433 l 1399 438 q 1386 446 1394 444 q 1372 453 1379 453 l 1372 457 l 1367 453 l 1364 453 l 1347 453 l 1343 453 l 1340 453 l 1333 453 q 1331 446 1331 450 l 1331 424 l 1336 418 l 1347 418 l 1360 418 l 1364 414 l 1371 407 l 1371 406 q 1372 403 1371 404 q 1372 400 1372 401 l 1371 394 l 1371 390 l 1367 388 l 1336 388 q 1333 383 1336 383 l 1331 381 l 1331 376 l 1331 350 q 1332 347 1331 347 q 1333 344 1333 347 l 1336 344 m 1410 297 q 1415 301 1413 300 q 1417 304 1417 301 q 1415 310 1417 307 q 1410 315 1413 313 q 1403 320 1404 319 q 1399 321 1401 321 l 1399 325 q 1390 333 1392 331 q 1389 339 1389 336 l 1386 339 q 1379 342 1382 342 l 1375 342 l 1371 339 l 1364 339 l 1360 339 l 1357 339 l 1354 339 q 1347 336 1351 339 q 1343 328 1343 333 l 1343 321 l 1347 321 l 1350 318 l 1350 317 q 1354 311 1350 313 q 1357 310 1357 311 q 1360 308 1357 308 q 1371 297 1367 297 l 1371 294 l 1372 294 l 1389 294 l 1393 294 l 1406 294 l 1410 297 l 1410 297 m 1472 311 l 1475 315 l 1472 315 l 1472 318 l 1475 321 l 1472 325 l 1472 328 l 1472 332 l 1472 335 l 1472 339 l 1468 342 l 1472 342 l 1472 344 l 1472 347 l 1472 350 l 1468 350 l 1468 374 l 1468 376 l 1468 378 q 1472 381 1468 381 l 1472 388 l 1472 390 l 1468 388 l 1468 407 l 1472 411 l 1468 411 l 1468 414 l 1468 418 l 1472 421 l 1468 424 l 1468 428 l 1472 428 q 1468 432 1468 429 l 1468 435 l 1468 438 l 1472 438 l 1468 444 l 1468 446 q 1464 450 1467 450 l 1460 453 l 1460 450 l 1457 450 l 1453 450 l 1457 450 l 1453 450 q 1451 453 1453 451 l 1450 453 l 1446 453 q 1440 450 1443 453 l 1440 453 l 1440 451 q 1436 450 1440 450 l 1436 453 l 1433 450 l 1433 446 l 1429 446 l 1429 444 l 1429 442 l 1429 435 l 1429 431 l 1429 424 l 1429 421 l 1429 414 l 1429 418 l 1429 411 q 1428 408 1429 410 l 1428 407 l 1426 407 l 1429 407 l 1429 404 l 1429 400 l 1429 397 l 1429 394 l 1429 390 l 1429 388 l 1429 383 l 1429 374 l 1433 374 q 1429 367 1429 371 l 1429 365 q 1433 364 1429 364 q 1429 361 1429 364 l 1429 360 l 1433 357 l 1433 350 l 1433 347 l 1433 344 q 1431 339 1433 342 q 1429 335 1429 336 l 1429 336 q 1433 339 1429 339 l 1433 335 l 1433 332 l 1433 328 q 1431 321 1433 326 q 1429 315 1429 318 l 1429 308 l 1429 310 l 1431 310 q 1433 311 1431 310 l 1429 304 l 1433 304 l 1433 301 l 1433 299 q 1436 297 1433 297 l 1436 296 q 1440 294 1436 294 l 1443 294 q 1444 292 1443 292 l 1446 292 l 1446 294 l 1450 294 l 1453 294 l 1457 294 l 1460 294 l 1464 294 l 1468 294 l 1468 297 l 1468 294 l 1472 308 l 1472 311 l 1475 311 l 1472 311 m 1568 367 q 1569 370 1568 369 q 1571 374 1571 371 q 1572 376 1571 376 l 1575 376 l 1571 376 l 1575 376 l 1575 381 l 1578 383 l 1578 388 q 1582 389 1582 388 l 1582 390 l 1582 394 l 1585 394 l 1585 397 l 1585 400 l 1588 400 l 1592 400 l 1592 397 l 1592 400 l 1594 400 l 1594 401 q 1592 404 1594 404 q 1594 408 1594 407 l 1594 411 l 1594 414 q 1599 421 1594 418 l 1599 424 l 1601 424 l 1601 428 l 1601 431 q 1606 432 1606 431 l 1606 435 l 1608 442 l 1611 442 l 1611 444 l 1611 450 l 1611 453 l 1608 453 l 1606 453 l 1594 453 l 1592 453 l 1588 453 l 1585 453 l 1582 453 l 1578 453 l 1575 453 l 1571 453 l 1568 453 l 1567 453 l 1568 453 l 1567 457 l 1567 453 l 1563 450 l 1563 453 l 1563 446 l 1563 444 l 1560 442 q 1557 436 1560 439 l 1556 435 q 1553 431 1556 431 l 1553 428 q 1551 425 1551 426 q 1553 424 1551 424 q 1550 422 1551 424 l 1549 422 l 1549 421 q 1547 419 1547 421 q 1546 414 1546 418 l 1546 411 q 1540 407 1544 411 q 1536 404 1538 406 l 1538 404 l 1538 403 q 1539 400 1538 401 l 1536 397 l 1532 397 l 1536 394 l 1532 390 l 1525 383 l 1529 383 l 1525 381 l 1525 376 l 1525 374 l 1522 371 l 1519 371 l 1519 374 l 1515 374 l 1515 376 l 1515 381 l 1513 381 l 1513 388 l 1508 388 l 1513 388 l 1508 390 l 1506 394 q 1499 397 1501 397 l 1496 397 l 1492 397 l 1492 394 l 1489 390 l 1489 388 l 1489 383 l 1489 381 l 1489 376 l 1489 374 l 1489 367 l 1489 353 l 1489 350 l 1489 347 l 1489 344 l 1489 342 l 1489 339 l 1492 339 l 1492 335 l 1496 328 l 1494 326 l 1499 328 l 1499 325 l 1499 321 l 1499 318 l 1501 318 l 1506 315 l 1506 311 l 1508 308 l 1508 306 q 1513 304 1508 304 l 1513 301 l 1515 301 q 1517 297 1515 297 l 1519 297 l 1519 294 l 1522 294 q 1529 297 1529 294 l 1532 301 l 1536 301 l 1536 304 l 1536 308 l 1536 311 l 1538 311 l 1538 313 q 1539 315 1538 313 l 1539 311 l 1543 321 q 1547 324 1544 321 q 1549 328 1549 325 l 1549 335 l 1550 335 q 1553 339 1553 335 l 1553 342 l 1556 342 l 1560 342 l 1560 347 l 1560 350 l 1563 353 q 1565 361 1563 356 l 1568 367 l 1568 367 m 1611 308 l 1615 308 l 1615 315 l 1615 318 l 1611 318 q 1615 321 1615 318 l 1615 325 l 1611 325 q 1615 326 1615 325 l 1615 328 l 1611 332 l 1611 335 l 1611 344 l 1611 347 l 1611 350 l 1611 353 l 1611 360 l 1615 360 l 1615 361 q 1611 364 1615 364 l 1611 367 q 1610 375 1611 374 q 1606 376 1608 376 l 1601 376 l 1599 376 l 1594 374 l 1592 371 l 1592 367 l 1592 364 l 1588 364 l 1588 360 l 1585 357 l 1585 353 q 1582 354 1583 354 l 1582 353 l 1582 347 l 1582 346 q 1578 344 1582 344 l 1578 342 l 1578 339 l 1575 339 q 1573 335 1575 336 q 1571 332 1571 335 l 1571 328 l 1571 325 l 1571 321 l 1571 318 l 1571 308 l 1571 301 l 1571 294 q 1574 296 1572 294 q 1576 297 1575 296 q 1578 297 1576 297 q 1579 294 1578 294 l 1582 294 l 1585 294 l 1588 294 l 1592 294 l 1594 294 l 1599 294 l 1599 297 l 1601 297 l 1606 297 q 1607 294 1606 294 l 1608 294 l 1611 301 l 1615 304 l 1611 308 z "},"W":{"ha":1015,"x_min":-71,"x_max":1090,"o":"m 467 308 q 442 362 467 340 q 390 383 418 383 q 333 362 358 383 q 308 308 308 340 q 333 253 308 275 q 390 232 358 232 q 442 253 418 232 q 467 308 467 275 m 542 308 q 564 253 542 275 q 618 232 586 232 q 672 253 650 232 q 694 308 694 275 q 672 362 694 340 q 618 383 650 383 q 564 362 586 383 q 542 308 542 340 m 472 90 q 417 51 436 67 q 388 24 397 35 q 374 4 376 11 q 265 110 311 63 q 226 149 244 129 q 192 184 207 168 q 169 210 178 200 q 163 221 161 219 q 165 294 171 264 q 144 345 158 325 q 112 376 131 365 q 77 394 93 388 q 49 402 61 400 q 38 406 38 404 q 59 450 54 428 q 60 494 64 472 q 44 535 56 515 q 18 572 32 556 q -71 650 -17 613 l 265 508 q 219 743 239 639 q 203 828 211 786 q 188 903 194 871 q 178 956 182 936 q 174 975 174 976 q 263 815 218 878 q 347 717 307 753 q 421 665 386 681 q 482 644 456 649 q 558 659 515 646 q 650 707 601 672 q 749 803 699 742 q 846 964 799 864 q 842 946 846 965 q 831 894 838 926 q 817 819 825 861 q 800 735 808 778 q 754 503 779 632 l 1090 639 q 1000 561 1035 601 q 974 524 985 544 q 957 483 963 504 q 956 439 951 461 q 976 394 960 417 q 967 391 978 393 q 940 383 956 389 q 905 365 924 376 q 872 335 886 354 q 853 286 858 315 q 857 215 847 257 q 848 204 857 214 q 824 178 839 194 q 790 143 810 163 q 751 104 771 124 q 646 -1 706 57 q 626 19 642 6 q 590 49 614 31 q 526 96 567 68 l 586 204 l 575 204 l 542 140 l 515 204 l 476 200 l 456 140 l 417 204 l 407 204 l 467 90 l 472 90 z "},"a":{"ha":674,"x_min":-24,"x_max":696,"o":"m 318 21 l 329 10 q 301 7 315 7 q 275 8 289 7 q 246 17 261 10 q 210 31 233 22 q 165 56 186 40 q 131 96 144 72 q 126 156 118 119 q 156 171 132 175 q 151 188 153 178 q 149 208 149 199 q 151 239 149 224 q 160 271 154 254 q 88 333 118 297 q 47 411 58 368 q 38 409 42 411 q 29 407 35 407 q -9 421 6 407 q -24 456 -24 435 q -9 488 -24 475 q 29 500 6 500 l 44 500 q 78 578 53 542 q 142 642 104 615 q 230 683 181 668 q 336 699 279 699 q 441 683 392 699 q 528 641 490 668 q 592 576 567 614 q 625 496 618 539 q 636 499 632 499 q 643 500 640 500 q 681 488 667 500 q 696 456 696 475 q 681 421 696 435 q 643 407 667 407 q 633 409 638 407 q 625 411 628 411 q 508 271 596 324 q 517 239 515 254 q 519 208 519 224 q 519 188 519 199 q 517 171 519 178 q 539 156 533 171 q 533 96 546 119 q 498 56 519 72 q 453 31 476 40 q 415 17 429 22 q 388 8 403 10 q 363 7 374 7 q 336 10 349 7 l 344 21 q 336 17 340 17 q 327 19 331 17 q 318 21 324 21 m 524 399 q 499 462 524 435 q 435 489 474 489 q 383 471 406 489 q 351 425 360 453 q 333 428 344 428 l 321 428 q 290 472 313 454 q 239 489 267 489 q 174 462 199 489 q 149 399 149 435 q 174 336 149 363 q 239 310 199 310 l 243 310 l 243 306 q 270 219 243 254 q 333 185 297 185 q 396 219 369 185 q 422 306 422 254 l 422 310 l 435 310 q 499 336 474 310 q 524 399 524 363 m 261 379 q 249 354 261 365 q 219 343 238 343 q 191 354 203 343 q 179 379 179 365 q 191 408 179 397 q 219 418 203 418 q 249 408 238 418 q 261 379 261 397 m 306 331 q 292 319 306 319 q 281 331 281 319 q 292 346 281 346 q 306 331 306 346 m 386 331 q 381 322 386 325 q 369 319 376 319 q 359 322 364 319 q 354 331 354 325 q 359 342 354 338 q 369 346 364 346 q 381 342 376 346 q 386 331 386 338 m 493 379 q 481 354 493 365 q 451 343 469 343 q 422 354 436 343 q 407 379 407 365 q 422 408 407 397 q 451 418 436 418 q 481 408 469 418 q 493 379 493 397 z "},"b":{"ha":618,"x_min":29,"x_max":581,"o":"m 343 676 q 424 646 386 668 q 489 591 461 624 q 532 517 517 558 q 547 431 547 476 q 515 306 547 363 q 426 215 483 250 l 435 215 l 581 151 q 547 128 565 138 q 510 115 532 119 q 464 117 489 110 q 439 67 454 90 q 403 28 425 47 q 350 0 382 8 q 381 61 381 24 q 366 107 381 86 q 328 136 351 128 q 315 141 322 139 q 297 143 307 143 q 290 141 294 143 q 282 139 285 139 q 236 111 254 133 q 218 61 218 89 q 240 4 218 26 q 194 33 213 15 q 165 71 176 51 q 146 117 151 93 q 99 115 119 110 q 63 128 78 119 q 29 151 44 138 l 172 215 q 85 306 119 250 q 51 431 51 363 q 65 513 51 474 q 104 583 79 551 q 163 637 129 614 q 238 669 197 660 l 233 692 l 267 676 l 275 676 l 310 726 l 343 676 m 176 285 q 210 299 197 285 q 222 329 222 313 q 210 362 222 349 q 176 375 197 375 q 144 362 157 375 q 132 329 132 349 q 144 299 132 313 q 176 285 157 285 m 310 215 q 342 259 340 242 q 333 285 344 276 q 301 293 321 293 q 269 284 281 293 q 260 258 257 275 q 294 215 263 240 l 310 215 m 426 285 q 456 299 443 285 q 468 329 468 313 q 456 362 468 349 q 426 375 443 375 q 394 362 407 375 q 381 329 381 349 q 394 299 381 313 q 426 285 407 285 z "},"c":{"ha":565,"x_min":18,"x_max":542,"o":"m 101 263 q 114 230 101 243 q 146 217 126 217 q 174 230 163 217 q 186 263 186 243 q 174 292 186 279 q 146 304 163 304 q 114 292 126 304 q 101 263 101 279 m 379 263 q 393 230 379 243 q 425 217 407 217 q 456 230 442 217 q 469 263 469 243 q 456 292 469 279 q 425 304 442 304 q 393 292 407 304 q 379 263 379 279 m 258 208 l 274 197 l 243 171 l 247 164 l 282 190 l 313 164 l 319 175 l 293 194 l 328 221 l 240 221 l 258 208 m 282 54 q 240 10 267 29 q 168 -10 213 -10 q 93 12 121 -10 q 50 60 65 33 q 25 129 32 90 l 25 236 q 42 208 29 224 q 72 180 53 196 q 126 144 92 164 q 79 190 100 165 q 45 242 61 213 q 25 308 29 272 q 18 414 18 369 q 21 489 18 458 q 29 549 24 525 q 78 621 53 588 q 128 673 100 649 q 186 700 157 697 q 197 698 189 700 q 206 681 206 696 l 206 557 l 256 557 l 308 557 l 354 557 l 354 681 q 362 698 354 696 q 372 700 369 700 q 431 673 403 697 q 482 621 460 649 q 531 549 507 588 q 539 489 536 525 q 541 414 542 458 q 535 308 540 369 q 516 242 532 272 q 481 190 500 213 q 432 144 458 165 q 487 180 467 164 q 518 208 507 196 q 535 236 531 224 l 535 129 q 510 60 528 90 q 466 12 494 33 q 390 -10 438 -10 q 322 10 349 -10 q 282 54 296 29 z "},"w":{"ha":721,"x_min":-47,"x_max":786,"o":"m 339 221 q 322 260 339 244 q 283 275 304 275 q 242 260 260 275 q 225 221 225 244 q 242 182 225 197 q 283 167 260 167 q 322 182 304 167 q 339 221 339 197 m 393 221 q 408 182 393 197 q 447 167 424 167 q 487 182 471 167 q 503 221 503 197 q 487 260 503 244 q 447 275 471 275 q 408 260 424 275 q 393 221 393 244 m 343 64 q 282 17 296 31 q 272 3 274 8 q 194 79 229 44 q 142 132 165 108 q 121 158 118 156 q 116 231 129 206 q 84 270 103 257 q 48 286 65 283 q 31 290 31 289 q 47 354 56 322 q 17 411 38 386 q -47 467 -8 440 l 194 365 l 161 535 q 149 597 154 567 q 138 649 143 626 q 131 686 133 672 q 128 700 128 700 q 192 585 160 631 q 253 515 224 540 q 306 477 282 489 q 350 463 331 465 q 405 473 374 464 q 470 507 436 482 q 541 576 504 532 q 611 692 578 621 q 608 678 611 692 q 601 641 606 664 q 590 588 596 618 q 578 528 583 558 q 546 361 563 454 l 786 458 q 722 403 747 432 q 691 347 701 378 q 704 283 681 315 q 689 278 706 282 q 653 263 672 275 q 622 225 635 250 q 619 154 608 200 q 595 128 619 151 q 543 75 571 104 q 468 -1 510 40 l 454 13 q 428 34 444 21 q 382 68 411 47 l 425 146 l 417 146 l 393 100 l 374 146 l 346 143 l 331 100 l 303 146 l 296 146 l 339 64 l 343 64 z "},"i":{"ha":697,"x_min":22,"x_max":674,"o":"m 560 483 q 585 492 568 481 q 612 524 601 504 q 622 568 622 543 q 596 617 621 593 q 538 644 568 646 q 484 627 507 643 q 451 590 461 611 q 454 561 442 569 q 474 551 467 554 q 488 544 482 547 q 499 538 493 542 q 514 526 504 533 q 538 499 532 508 q 560 483 544 489 m 143 483 q 158 490 153 486 q 167 499 163 494 q 176 511 171 504 q 192 526 181 518 q 208 538 201 533 q 220 544 214 542 q 234 551 226 547 q 254 561 242 554 q 257 590 267 569 q 224 627 247 611 q 169 644 201 643 q 108 617 138 646 q 85 568 85 593 q 95 524 85 543 q 121 492 106 504 q 143 483 136 481 m 510 333 q 496 365 510 351 q 463 378 482 378 q 431 365 443 378 q 419 333 419 351 q 431 306 419 318 q 463 294 443 294 q 496 306 482 294 q 510 333 510 318 m 306 326 q 291 354 306 344 q 258 364 276 364 q 227 354 239 364 q 215 326 215 344 q 227 297 215 307 q 258 288 239 288 q 291 297 276 288 q 306 326 306 307 m 317 294 q 329 261 317 274 q 361 249 342 249 q 394 261 381 249 q 407 294 407 274 q 397 326 407 313 q 372 342 388 339 l 372 333 q 369 323 372 328 q 364 318 367 318 q 354 323 357 318 q 351 333 351 328 l 351 342 q 326 326 336 339 q 317 294 317 313 m 361 0 l 242 0 q 197 14 215 1 q 171 44 179 26 q 163 83 163 63 q 175 121 164 104 q 191 160 181 132 q 211 211 201 188 q 128 285 160 240 q 97 385 97 331 q 100 413 97 399 q 106 440 103 428 q 46 488 69 458 q 22 557 22 518 q 34 607 22 583 q 66 649 46 631 q 113 677 86 667 q 171 688 140 688 q 265 660 224 688 q 321 589 306 633 q 339 594 329 593 q 361 594 349 594 l 379 594 q 435 661 394 635 q 525 688 475 688 q 583 677 556 688 q 630 649 610 667 q 662 607 650 631 q 674 557 674 583 q 656 494 674 522 q 607 447 638 465 q 617 418 614 433 q 619 385 619 403 q 590 286 619 331 q 510 215 560 242 q 528 160 518 189 q 544 121 538 132 q 553 83 553 104 q 546 44 554 63 q 519 14 538 26 q 474 0 501 1 l 361 0 z "},"f":{"ha":800,"x_min":13,"x_max":786,"o":"m 576 582 q 595 538 576 557 q 642 519 614 519 q 684 538 665 519 q 703 582 703 557 q 684 628 703 610 q 642 647 665 647 q 595 628 614 647 q 576 582 576 610 m 108 582 q 125 538 108 557 q 169 519 142 519 q 213 538 194 519 q 231 582 231 557 q 213 628 231 610 q 169 647 194 647 q 125 628 142 647 q 108 582 108 610 m 436 544 l 407 519 q 404 508 404 515 q 412 502 407 504 q 419 503 417 500 l 450 528 q 450 540 456 533 q 436 544 444 544 m 335 540 q 335 528 328 533 l 363 503 q 369 502 365 500 q 374 508 374 504 q 374 519 382 513 l 346 544 q 335 540 338 544 m 108 435 q 115 456 111 446 q 125 474 118 467 q 71 513 90 485 q 51 578 51 540 q 83 652 51 621 q 157 683 114 683 q 231 657 201 683 q 268 590 261 631 q 396 610 326 610 q 473 603 436 610 q 544 582 510 597 q 577 654 547 625 q 649 683 607 683 q 728 652 696 683 q 761 578 761 621 q 734 507 761 538 q 671 471 707 476 q 681 453 676 463 q 688 435 685 443 q 568 445 647 440 q 388 450 489 450 q 224 447 297 450 q 108 435 151 443 m 301 19 l 297 -1 l 71 7 l 186 51 q 124 85 158 65 q 64 134 90 106 q 25 201 38 163 q 26 290 13 240 q 40 311 31 306 q 63 316 50 317 q 90 309 75 315 q 121 294 106 303 q 106 337 111 315 q 100 381 100 358 l 100 406 q 219 394 143 399 q 388 389 294 389 q 573 394 492 389 q 692 408 654 400 q 695 397 694 403 q 696 381 696 390 q 671 290 696 332 q 702 307 686 300 q 733 315 718 314 q 758 311 747 317 q 772 290 768 306 q 772 201 786 240 q 730 133 758 163 q 667 84 701 104 q 604 51 632 64 l 719 7 l 493 -1 l 490 15 l 450 15 q 424 12 436 13 q 396 11 411 11 q 371 12 383 11 q 346 15 358 13 q 326 16 339 15 q 301 19 313 17 z "},"g":{"ha":596,"x_min":6,"x_max":589,"o":"m 239 518 q 229 543 239 533 q 204 553 219 553 q 183 543 193 553 q 172 518 172 533 q 183 497 172 507 q 204 488 193 488 q 229 497 219 488 q 239 518 239 507 m 414 518 q 406 543 414 533 q 383 553 399 553 q 358 543 368 553 q 349 518 349 533 q 358 497 349 507 q 383 488 368 488 q 406 497 399 488 q 414 518 414 507 m 357 476 q 347 494 354 486 q 330 507 340 501 q 303 514 319 513 l 296 514 l 292 514 q 263 507 274 513 q 246 494 253 501 q 235 476 239 486 q 269 431 251 439 q 296 426 286 424 q 322 431 304 424 q 357 476 339 439 m 108 -1 q 35 64 61 26 q 15 100 24 81 q 6 143 7 119 q 13 194 6 167 q 39 254 19 222 q 72 221 51 235 q 111 200 92 207 q 158 186 133 190 q 106 214 125 199 q 77 243 86 229 q 65 267 68 257 q 63 282 63 278 q 89 407 71 347 q 134 512 104 458 q 215 599 164 565 q 194 619 206 607 q 177 645 183 632 q 172 670 171 658 q 185 690 172 682 q 226 708 210 708 q 252 697 242 708 q 268 665 263 685 q 276 626 274 646 q 282 626 279 626 q 292 629 285 626 q 301 663 294 647 q 326 675 308 678 q 353 653 351 669 q 342 618 356 636 q 347 616 344 618 q 353 614 350 614 q 376 623 364 621 q 396 618 389 625 q 396 588 414 606 q 465 505 439 554 q 507 409 492 456 q 528 327 522 363 q 536 286 535 292 q 533 270 536 282 q 520 244 531 258 q 491 216 510 231 q 440 190 472 201 q 485 204 463 196 q 523 223 504 211 q 556 254 542 235 q 582 194 575 222 q 588 143 589 167 q 578 100 586 119 q 560 64 571 81 q 488 -1 533 26 l 300 3 l 108 -1 z "},"h":{"ha":661,"x_min":19,"x_max":636,"o":"m 467 414 q 493 424 482 414 q 504 446 504 435 q 493 469 504 461 q 467 478 482 478 q 444 469 454 478 q 435 446 435 461 q 444 424 435 435 q 467 414 454 414 m 163 414 q 189 424 178 414 q 200 446 200 435 q 189 469 200 461 q 163 478 178 478 q 142 469 151 478 q 132 446 132 461 q 142 424 132 435 q 163 414 151 414 m 321 321 l 350 321 l 372 365 q 387 397 381 382 q 390 414 393 411 q 352 423 368 421 q 321 425 336 425 l 321 321 m 236 408 l 281 321 l 310 321 l 310 425 q 278 422 292 425 q 256 417 265 419 q 236 408 244 413 m 633 190 q 635 177 635 190 q 633 144 636 164 q 622 99 629 124 q 597 50 614 74 q 532 -2 571 10 q 456 -9 493 -14 q 390 15 418 -4 q 361 54 363 33 q 353 56 361 56 q 335 58 346 57 q 314 58 325 58 q 297 58 303 58 q 268 16 296 35 q 202 -8 240 -3 q 124 -2 164 -14 q 58 50 85 10 q 33 99 42 74 q 22 144 25 124 q 22 177 19 164 q 26 190 24 190 q 63 209 47 190 q 90 251 79 228 q 106 292 100 274 q 111 308 111 310 q 84 269 99 286 q 56 244 69 253 q 35 233 43 235 q 26 240 26 232 q 64 408 32 325 q 135 555 96 490 q 210 659 174 619 q 264 697 247 699 q 291 686 283 694 q 299 667 299 678 q 293 640 299 654 l 314 640 l 367 640 q 360 667 360 654 q 366 686 360 678 q 394 697 372 694 q 448 658 411 697 q 524 553 485 618 q 595 407 564 489 q 633 240 626 325 q 624 233 633 232 q 601 243 615 235 q 573 267 588 251 q 547 304 558 283 q 551 290 546 307 q 567 250 556 272 q 596 209 579 228 q 633 190 613 190 z "},"d":{"ha":546,"x_min":33,"x_max":513,"o":"m 419 346 q 408 376 419 364 q 378 389 396 389 q 349 376 360 389 q 339 346 339 364 q 349 317 339 329 q 378 304 360 304 q 408 317 396 304 q 419 346 419 329 m 204 346 q 191 376 204 364 q 161 389 178 389 q 133 376 143 389 q 122 346 122 364 q 133 317 122 329 q 161 304 143 304 q 191 317 178 304 q 204 346 204 329 m 265 276 q 253 273 258 274 q 242 269 249 272 q 231 263 236 267 q 218 257 225 260 q 196 256 207 251 q 158 269 185 260 q 126 265 135 274 q 122 257 122 261 q 131 243 122 246 q 151 235 140 240 q 168 215 161 229 q 172 168 175 201 q 176 133 169 147 q 193 110 182 119 q 217 97 204 101 q 242 92 231 93 q 257 88 249 89 q 281 88 265 88 q 308 92 292 89 q 340 103 325 94 q 363 126 354 111 q 369 168 372 142 q 374 215 367 201 q 392 235 382 229 q 410 243 401 240 q 419 257 419 246 q 414 265 418 261 q 385 269 406 274 q 347 256 358 260 q 324 257 335 251 q 310 263 314 260 q 296 269 306 267 q 290 271 294 269 q 283 272 288 271 q 274 272 279 272 q 265 272 274 281 l 269 276 l 265 276 m 281 1 l 142 -1 q 160 10 150 4 q 177 21 168 15 q 196 33 186 26 q 116 89 147 51 q 85 176 85 126 q 87 206 85 192 q 94 231 89 219 q 49 318 65 268 q 33 424 33 368 q 52 533 33 482 q 103 621 71 583 q 180 680 136 658 q 274 701 224 701 q 367 680 324 701 q 442 621 410 658 q 494 533 475 583 q 513 424 513 482 q 496 318 513 368 q 447 231 479 268 q 459 206 456 219 q 463 176 463 192 q 433 93 463 129 q 358 36 404 57 q 378 23 368 29 q 399 11 389 17 q 419 -1 410 6 l 281 1 m 269 21 l 281 1 l 292 21 l 274 21 l 269 21 z "},"n":{"ha":692,"x_min":-4,"x_max":690,"o":"m 299 311 q 238 285 256 310 q 230 235 219 261 q 279 192 240 208 q 388 190 318 175 l 392 190 q 440 214 424 194 q 456 255 457 233 q 437 294 456 276 q 381 315 418 313 q 382 296 385 304 q 371 283 379 289 q 340 279 363 276 l 338 279 q 308 281 315 276 q 297 293 300 286 q 299 311 294 300 m 285 357 q 271 390 285 378 q 238 403 257 403 q 201 390 217 403 q 186 357 186 378 q 201 324 186 338 q 238 311 217 311 q 271 324 257 311 q 285 357 285 338 m 399 357 q 415 324 399 338 q 450 311 431 311 q 483 324 468 311 q 497 357 497 338 q 483 390 497 378 q 450 403 468 403 q 415 390 431 403 q 399 357 399 378 m 679 583 q 678 513 690 540 q 647 468 667 485 q 593 439 625 449 q 647 312 636 371 q 651 208 657 253 q 631 136 644 164 q 614 101 617 108 q 585 49 597 69 q 567 18 574 29 q 551 0 558 4 l 136 0 q 122 18 131 4 q 103 49 115 29 q 76 101 92 69 q 41 227 42 167 q 53 335 40 288 q 97 439 68 390 q 42 468 65 449 q 9 513 22 485 q 7 583 -4 540 q 50 650 22 633 q 107 667 78 667 q 179 649 140 667 q 221 675 196 665 q 271 690 246 685 q 317 697 296 694 q 346 699 338 699 q 372 697 351 699 q 419 690 393 694 q 470 675 444 685 q 513 649 496 665 q 583 667 550 667 q 638 650 611 667 q 679 583 665 633 z "},"k":{"ha":850,"x_min":-40,"x_max":889,"o":"m 308 351 q 292 390 308 374 q 251 406 275 406 q 214 390 229 406 q 199 351 199 374 q 214 317 199 332 q 251 301 229 301 q 292 317 275 301 q 308 351 308 332 m 646 351 q 628 390 646 374 q 588 406 611 406 q 551 390 565 406 q 536 351 536 374 q 551 317 536 332 q 588 301 565 301 q 628 317 611 301 q 646 351 646 332 m 371 319 q 385 249 371 275 q 421 222 400 222 q 455 249 439 222 q 471 319 471 275 q 455 388 471 360 q 421 417 439 417 q 385 388 400 417 q 371 319 371 360 m 114 351 q 3 393 47 361 q -40 464 -40 425 q -25 510 -40 489 q 17 548 -10 532 q 81 574 44 564 q 158 583 117 583 l 179 583 q 288 650 224 625 q 425 675 353 675 q 564 650 500 675 q 674 583 628 625 l 693 583 q 770 574 735 583 q 832 548 806 564 q 874 510 858 532 q 889 464 889 489 q 846 393 889 425 q 738 351 803 361 q 715 308 726 328 q 682 269 703 289 q 647 252 668 260 q 594 238 626 244 q 625 238 610 236 q 656 242 639 239 q 690 254 674 246 q 699 218 697 233 q 700 192 700 203 q 699 173 700 181 q 701 160 699 165 q 707 115 711 142 q 688 65 703 89 q 648 22 672 40 q 594 3 624 4 q 564 -1 592 0 q 499 -1 536 -1 q 457 8 478 -1 q 421 26 436 18 q 387 8 406 18 q 349 -1 368 -1 q 281 -1 313 -1 q 247 3 250 0 q 197 22 219 4 q 158 65 174 40 q 138 115 143 89 q 142 160 133 142 q 147 174 147 165 q 145 193 146 182 q 146 219 144 204 q 156 254 147 235 q 221 238 192 239 q 247 238 250 238 q 163 269 194 250 q 133 309 147 289 q 114 351 119 329 z "},"t":{"ha":651,"x_min":22,"x_max":624,"o":"m 306 4 l 196 0 q 138 79 154 43 q 118 143 121 115 q 125 201 114 175 q 90 139 106 164 q 63 101 76 117 q 42 94 49 85 q 24 139 22 117 q 38 197 26 161 q 63 288 49 232 q 81 433 76 343 q 101 534 83 492 q 144 605 119 576 q 199 651 169 633 q 253 680 228 669 q 299 694 279 690 q 322 699 318 697 q 347 694 328 697 q 393 680 367 690 q 449 651 419 669 q 503 605 478 633 q 546 534 528 576 q 567 433 564 492 q 585 288 571 343 q 609 197 599 232 q 622 139 619 161 q 603 94 624 117 q 583 101 596 85 q 556 139 569 117 q 522 201 540 164 q 529 143 533 175 q 510 79 526 115 q 453 0 493 43 l 338 4 q 391 33 360 13 q 452 90 422 53 q 505 185 482 128 q 535 328 528 243 q 538 389 538 361 q 533 435 538 417 q 515 463 528 454 q 481 469 503 472 q 429 429 438 467 q 436 340 421 392 q 426 311 439 328 q 395 279 414 294 q 356 255 376 264 q 322 249 335 246 q 288 255 308 246 q 247 279 267 264 q 215 311 228 294 q 207 340 203 328 q 216 390 214 367 q 213 430 218 413 q 194 458 207 447 q 160 469 182 468 q 110 435 118 475 q 104 328 101 396 q 136 185 113 243 q 190 90 160 128 q 252 33 221 53 q 306 4 283 13 m 318 304 q 345 311 329 303 q 375 333 361 319 q 399 363 389 347 q 408 390 408 378 q 399 402 410 399 q 374 406 389 406 q 342 406 358 407 q 318 403 326 404 q 296 406 311 404 q 265 406 281 407 q 238 402 250 406 q 226 390 226 399 q 238 363 228 378 q 263 333 249 347 q 292 311 278 319 q 318 304 307 303 m 428 382 q 438 408 428 397 q 464 418 449 418 q 489 408 479 418 q 499 382 499 397 q 489 357 499 367 q 464 347 479 347 q 438 357 449 347 q 428 382 428 367 m 140 382 q 151 408 140 397 q 176 418 161 418 q 201 408 192 418 q 211 382 211 397 q 201 357 211 367 q 176 347 192 347 q 151 357 161 347 q 140 382 140 367 z "},"m":{"ha":569,"x_min":26,"x_max":553,"o":"m 553 408 q 528 311 553 354 q 440 240 504 268 q 448 207 443 226 q 458 168 453 188 q 469 133 464 149 q 476 111 474 117 q 485 74 485 93 q 478 40 486 56 q 452 13 469 24 q 408 -1 435 1 l 292 -1 l 171 -1 q 126 13 143 1 q 101 40 110 24 q 94 74 93 56 q 107 111 96 93 q 113 133 110 117 q 121 167 117 149 q 128 206 125 186 q 135 240 132 225 q 50 309 74 264 q 26 408 26 354 q 29 437 26 424 q 39 465 32 450 q 56 511 44 482 q 83 574 67 540 q 124 639 100 607 q 179 694 147 671 q 195 692 188 701 q 208 665 203 682 q 218 627 214 647 q 224 593 222 607 q 256 595 239 593 q 288 597 272 597 q 321 597 306 597 q 351 593 336 596 q 357 627 353 607 q 367 665 361 647 q 380 692 372 682 q 396 694 388 701 q 452 638 428 671 q 494 571 476 606 q 523 506 511 536 q 540 457 535 475 q 544 447 543 450 q 549 440 546 443 l 549 432 q 551 421 549 426 q 553 408 553 415 m 139 292 q 181 308 163 292 q 199 349 199 325 q 181 388 199 372 q 139 404 163 404 q 93 388 111 404 q 75 349 75 372 q 93 308 75 325 q 139 292 111 292 m 311 317 l 300 324 l 311 332 l 300 344 l 288 332 l 275 344 l 268 332 l 275 324 l 264 317 l 271 304 l 288 317 l 304 304 l 311 317 m 444 292 q 486 308 468 292 q 504 349 504 325 q 486 388 504 372 q 444 404 468 404 q 399 388 417 404 q 381 349 381 372 q 399 308 381 325 q 444 292 417 292 z "},"l":{"ha":585,"x_min":8,"x_max":575,"o":"m 185 397 q 176 420 185 410 q 154 431 167 431 q 131 420 140 431 q 122 397 122 410 q 131 376 122 385 q 154 367 140 367 q 176 376 167 367 q 185 397 185 385 m 450 407 q 440 428 450 419 q 415 438 431 438 q 393 428 401 438 q 385 407 385 419 q 393 385 385 394 q 415 376 401 376 q 440 385 431 376 q 450 407 450 394 m 343 272 l 288 242 l 233 269 q 213 232 213 253 q 233 192 213 208 q 281 176 253 176 l 281 242 l 288 242 l 292 242 l 292 176 q 346 192 324 176 q 368 232 368 208 q 361 254 368 243 q 343 272 354 265 m 288 43 l 260 1 l 236 15 l 229 4 q 206 15 225 4 q 163 51 188 26 q 116 111 139 75 q 82 197 93 147 q 80 216 82 206 q 78 242 78 226 q 141 183 107 204 q 203 150 175 161 q 249 136 231 139 q 264 135 267 133 q 186 184 218 158 q 133 234 154 210 q 100 279 113 258 q 82 314 88 300 q 87 375 83 344 q 92 430 90 406 q 95 469 94 454 q 94 486 96 485 q 35 528 51 497 q 14 596 18 560 q 17 686 8 636 l 164 600 q 190 614 175 607 q 224 629 204 621 q 271 649 243 638 l 271 665 l 292 656 l 315 665 l 315 649 q 363 629 343 638 q 396 614 382 621 q 422 600 411 607 l 567 686 q 569 596 575 636 q 548 528 565 560 q 488 486 531 497 q 489 471 488 485 q 492 435 490 457 q 497 385 494 413 q 501 328 499 357 q 488 293 497 315 q 456 244 478 271 q 401 190 435 218 q 315 135 367 161 q 331 137 313 133 q 378 152 349 140 q 441 186 407 164 q 506 246 475 208 q 505 218 506 231 q 501 197 504 206 q 467 111 490 147 q 420 51 444 75 q 377 15 396 26 q 354 4 358 4 l 343 18 l 313 1 l 288 43 z "},"o":{"ha":628,"x_min":22,"x_max":599,"o":"m 333 224 q 328 235 333 231 q 317 240 324 240 q 305 235 310 240 q 300 224 300 231 q 305 207 300 213 q 317 201 310 201 q 328 207 324 201 q 333 224 333 213 m 389 419 l 389 407 q 401 365 390 385 q 431 331 413 346 q 472 308 449 317 q 522 300 496 300 q 548 303 535 300 q 574 308 561 306 q 529 242 557 272 q 469 189 501 213 l 479 189 q 541 168 514 186 q 582 128 568 150 q 593 84 596 106 q 568 53 590 63 q 542 54 549 46 q 531 76 536 63 q 516 103 525 89 q 483 121 507 117 q 490 97 488 110 q 494 74 493 86 q 492 49 494 61 q 474 15 489 31 q 441 -11 458 -1 q 407 -22 424 -21 q 385 -8 390 -22 q 385 11 381 3 q 396 26 389 19 q 410 40 403 33 q 418 57 417 47 q 412 94 418 76 q 368 131 406 111 q 354 135 361 132 q 340 138 347 138 q 325 142 332 139 q 312 138 318 139 q 300 135 306 138 q 288 131 294 132 q 242 94 249 111 q 236 57 236 76 q 245 40 238 47 q 260 26 253 33 q 271 11 267 19 q 269 -8 275 3 q 245 -22 261 -22 q 212 -11 229 -21 q 181 15 194 -1 q 164 49 167 31 q 160 74 160 61 q 163 97 160 86 q 168 121 165 110 q 136 103 144 117 q 123 76 128 89 q 112 54 118 63 q 86 53 106 46 q 63 80 65 61 q 70 120 60 99 q 102 160 81 142 q 154 185 124 178 q 91 241 118 208 q 49 313 64 274 q 107 300 74 300 q 192 328 156 300 q 236 394 229 356 q 242 408 239 400 q 244 424 244 417 q 217 488 244 463 q 151 514 189 514 q 88 488 115 514 q 60 424 60 463 q 72 381 60 401 q 100 350 83 361 q 50 367 69 350 q 26 407 31 383 q 23 415 24 410 q 22 428 22 421 q 45 540 22 488 q 107 631 68 592 q 199 692 146 669 q 313 714 251 714 q 423 692 371 714 q 514 631 475 669 q 576 540 553 592 q 599 428 599 488 q 598 404 599 415 q 594 381 597 393 q 569 359 585 368 q 535 350 554 350 q 560 382 551 364 q 568 419 568 400 q 543 484 568 458 q 479 510 518 510 q 415 484 440 510 q 389 419 389 458 z "},"q":{"ha":654,"x_min":-28,"x_max":692,"o":"m 186 354 q 178 377 186 368 q 154 386 169 386 q 133 377 143 386 q 124 354 124 368 q 133 331 124 340 q 154 322 143 322 q 178 331 169 322 q 186 354 186 340 m 536 351 q 527 374 536 364 q 504 383 518 383 q 483 374 492 383 q 474 351 474 364 q 483 328 474 336 q 504 319 492 319 q 527 328 518 319 q 536 351 536 336 m 176 181 q 196 120 176 139 q 241 97 215 101 q 292 96 267 92 q 329 104 317 100 q 366 96 342 100 q 415 97 390 92 q 459 120 440 101 q 478 181 478 139 q 467 204 474 193 q 449 222 460 214 q 421 231 438 229 q 357 227 378 236 q 329 210 336 218 q 299 227 321 218 q 238 231 278 236 q 208 222 219 229 q 190 204 197 214 q 176 181 182 193 m 144 583 q 128 604 133 592 q 131 631 124 617 q 147 659 138 649 q 165 676 157 669 q 186 686 175 683 q 182 657 182 671 q 184 635 182 646 q 194 619 186 624 q 213 613 203 617 q 238 606 224 608 q 283 619 258 613 q 332 626 308 626 q 381 619 356 626 q 428 606 407 613 q 452 613 442 608 q 471 619 463 617 q 480 635 478 624 q 482 657 482 646 q 478 686 481 671 q 499 676 488 683 q 517 659 507 669 q 536 631 528 649 q 537 604 543 617 q 519 583 531 592 l 692 583 q 665 529 683 554 q 622 490 650 508 q 549 468 594 471 q 554 443 546 468 q 574 388 563 418 q 601 308 586 351 q 613 236 610 272 q 610 167 615 204 q 583 97 604 131 q 569 81 582 96 q 542 48 557 65 q 513 16 526 31 q 494 1 499 1 q 444 3 474 1 q 385 4 415 4 q 358 12 374 4 q 332 26 343 19 q 310 12 321 19 q 286 4 299 4 q 225 3 257 4 q 169 1 193 1 q 149 16 164 1 q 120 48 135 31 q 94 81 106 65 q 82 97 82 96 q 55 167 61 131 q 50 236 49 204 q 60 308 51 272 q 89 388 76 351 q 108 443 100 418 q 114 468 115 468 q 40 490 67 471 q -3 529 13 508 q -28 583 -19 554 l 144 583 m 449 181 q 444 169 449 174 q 432 164 439 164 q 418 169 424 164 q 413 181 413 174 q 432 199 413 199 q 449 181 449 199 m 244 181 q 238 169 244 174 q 224 164 231 164 q 210 169 215 164 q 206 181 206 174 q 224 199 206 199 q 238 194 231 199 q 244 181 244 189 z "},"r":{"ha":622,"x_min":14,"x_max":610,"o":"m 279 292 l 271 281 l 315 247 l 361 281 l 354 292 l 315 267 l 279 292 m 171 318 q 185 286 171 299 q 218 274 199 274 q 251 286 239 274 q 264 318 264 299 q 251 353 264 338 q 218 368 239 368 q 185 353 199 368 q 171 318 171 338 m 365 322 q 380 288 365 303 q 414 274 394 274 q 448 288 433 274 q 463 322 463 303 q 448 355 463 342 q 414 368 433 368 q 380 355 394 368 q 365 322 365 342 m 313 -7 l 114 -7 q 61 -6 83 -11 q 28 10 42 -1 q 21 49 14 21 q 47 132 26 76 q 89 244 67 188 q 144 386 114 311 l 63 574 q 54 613 56 594 q 58 645 53 628 q 81 674 64 663 q 117 689 99 688 q 150 684 135 690 q 178 667 165 678 q 200 644 192 656 q 225 594 207 633 q 263 513 243 554 q 313 404 286 463 l 313 401 l 313 404 q 363 513 339 463 q 401 594 382 554 q 429 644 421 633 q 450 667 438 656 q 478 684 463 678 q 510 689 493 690 q 544 674 526 688 q 567 645 561 663 q 572 613 572 628 q 567 574 572 594 l 481 386 q 536 244 511 311 q 578 132 558 188 q 604 49 597 76 q 597 10 610 21 q 565 -6 583 -1 q 515 -7 544 -11 l 313 -7 z "},"s":{"ha":718,"x_min":-50,"x_max":764,"o":"m 446 286 q 471 297 461 286 q 481 325 481 308 q 471 352 481 340 q 446 364 461 364 q 419 352 431 364 q 407 325 407 340 q 419 297 407 308 q 446 286 431 286 m 368 264 l 344 264 l 318 264 l 344 228 l 344 206 l 357 206 l 357 228 l 368 244 l 379 264 l 368 264 m 260 286 q 287 297 275 286 q 299 325 299 308 q 287 352 299 340 q 260 364 275 364 q 233 352 244 364 q 221 325 221 340 q 233 297 221 308 q 260 286 244 286 m 593 210 q 607 189 601 200 q 613 167 613 178 q 585 117 613 135 l 585 101 q 546 47 585 65 q 517 21 535 32 q 476 0 500 10 l 344 0 l 240 0 q 164 54 192 18 q 144 73 151 60 q 136 101 136 86 q 134 112 136 107 q 132 119 132 117 q 116 140 124 129 q 108 167 108 151 q 113 185 108 176 q 125 201 118 194 q 131 260 125 238 q 136 279 136 282 q 163 242 144 254 q 201 226 182 231 q 233 221 219 221 q 244 221 246 221 q 189 244 211 225 q 154 283 167 263 q 132 338 139 308 q 58 335 92 325 q 1 363 25 346 q -50 411 -26 382 l 125 507 l 125 511 l 125 515 q 126 561 115 539 q 160 589 136 583 q 161 592 160 592 l 164 592 q 171 602 167 599 q 178 608 175 606 q 189 639 178 625 q 217 658 200 653 q 253 663 233 669 q 263 677 256 671 q 279 686 271 683 q 338 678 313 696 l 344 678 l 368 678 l 379 678 q 407 689 392 686 q 438 686 422 692 q 469 663 457 679 q 504 658 489 669 q 532 638 522 653 q 542 604 542 622 q 550 592 542 600 q 563 589 558 592 q 596 561 586 583 q 597 515 606 539 q 593 507 593 511 l 764 411 q 714 363 742 382 q 656 335 690 346 q 581 338 621 325 q 558 283 574 308 q 524 244 546 263 q 469 221 503 225 q 515 225 493 219 q 552 242 535 231 q 581 279 569 254 q 585 262 581 282 q 593 210 590 242 z "},"j":{"ha":560,"x_min":-17,"x_max":569,"o":"m 410 335 q 418 315 410 324 q 438 306 426 306 q 459 315 450 306 q 468 335 468 324 q 459 357 468 349 q 438 365 450 365 q 418 357 426 365 q 410 335 410 349 m 140 335 q 131 357 140 349 q 111 365 122 365 q 90 357 99 365 q 81 335 81 349 q 90 315 81 324 q 111 306 99 306 q 131 315 122 306 q 140 335 140 324 m 85 97 q 58 174 63 133 q 56 243 53 215 q 77 197 64 215 q 101 168 90 179 q 120 152 113 157 q 126 149 128 147 q 92 203 103 178 q 75 250 81 229 q 69 285 69 271 q 69 303 69 299 q 81 338 74 315 q 97 384 89 361 q 110 424 104 407 q 115 440 115 440 q 45 485 71 446 q 6 571 19 525 q -17 692 -10 625 l 181 549 q 192 554 186 551 q 206 560 197 557 q 225 568 214 563 l 225 606 l 275 588 q 299 597 285 593 q 326 606 313 601 l 326 568 l 369 549 l 569 692 q 546 571 563 625 q 528 525 539 547 q 505 485 518 503 q 475 455 492 467 q 438 440 458 443 q 443 422 438 440 q 456 380 449 404 q 472 333 464 356 q 483 300 479 310 q 483 279 483 293 q 476 245 482 265 q 459 200 471 225 q 425 149 447 175 q 431 152 424 147 q 449 168 439 157 q 472 197 460 179 q 493 243 485 215 q 494 174 499 215 q 468 97 490 133 q 457 81 468 96 q 431 48 446 65 q 403 16 417 31 q 386 1 390 1 l 288 1 q 278 6 282 1 q 276 3 276 3 l 276 1 l 275 1 l 164 1 q 147 16 160 1 q 120 48 133 31 q 96 81 107 65 q 85 97 85 96 m 190 160 q 184 145 190 151 q 171 139 178 139 q 165 140 168 139 q 160 142 163 142 q 157 133 157 139 q 157 124 157 128 q 190 72 157 93 q 271 50 222 50 q 349 72 317 50 q 382 124 382 93 q 382 133 382 128 q 379 142 382 138 q 372 139 379 139 q 360 145 365 139 q 356 160 356 151 q 358 168 356 165 q 271 199 326 199 q 183 171 219 199 q 188 166 186 168 q 190 160 190 164 z "},"x":{"ha":649,"x_min":-42,"x_max":696,"o":"m 694 296 l 636 286 l 686 257 l 628 254 l 674 219 l 617 224 l 657 182 l 600 192 l 636 149 l 581 167 l 611 117 l 560 140 l 582 88 l 533 119 l 551 64 l 506 99 l 517 43 l 475 81 l 481 25 l 451 61 q 448 56 450 58 q 444 51 446 54 l 444 13 l 428 35 q 417 24 422 29 q 407 15 413 19 l 403 10 q 394 3 399 7 q 386 -3 390 0 q 378 -5 383 -7 q 368 4 372 -3 l 354 26 q 326 21 343 21 q 301 25 314 21 q 297 15 299 19 q 292 6 294 10 l 286 0 q 271 -3 278 -8 q 261 5 265 0 q 253 14 257 10 l 246 19 q 235 28 240 24 q 226 39 229 33 l 208 13 l 208 58 q 205 61 206 61 q 203 64 204 61 l 171 25 l 178 83 l 133 43 l 146 101 l 99 65 l 118 121 l 69 90 l 93 143 l 39 121 l 72 169 l 15 150 l 51 196 l -6 186 l 38 226 l -21 222 l 26 256 l -33 260 l 18 289 l -39 299 l 14 322 l -42 338 l 14 356 l -39 378 l 18 389 l -32 419 l 26 422 l -19 457 l 39 454 l -4 494 l 53 485 l 18 531 l 74 514 l 42 563 l 94 539 l 69 592 l 121 563 l 101 617 l 149 585 l 136 640 l 178 601 l 171 657 l 210 615 l 208 672 l 243 626 l 249 683 l 276 633 l 289 690 l 310 636 l 326 692 l 344 636 l 368 690 l 381 632 l 408 683 l 414 626 l 450 671 l 447 614 l 488 656 l 479 597 l 522 638 l 510 581 l 557 615 l 536 560 l 586 589 l 563 538 l 615 558 l 583 510 l 639 525 l 603 483 l 661 492 l 617 451 l 675 454 l 628 419 l 688 415 l 636 386 l 694 378 l 640 353 l 696 338 l 640 321 l 694 296 m 386 85 q 487 138 447 99 q 526 226 526 176 q 508 290 526 269 q 467 317 490 310 q 426 309 443 325 q 395 267 408 293 q 372 211 382 242 q 354 158 363 181 q 338 162 347 161 q 318 163 329 163 q 313 161 315 161 q 307 160 310 161 q 290 213 299 182 q 267 269 281 243 q 237 310 254 294 q 196 317 219 325 q 154 290 172 310 q 136 226 136 269 q 172 141 136 178 q 263 88 207 104 q 289 49 269 68 q 332 33 308 31 q 365 51 351 35 q 386 85 379 67 m 246 175 q 267 165 258 175 q 276 140 276 156 q 267 119 276 128 q 246 110 258 110 q 222 119 231 110 q 213 140 213 128 q 222 165 213 156 q 246 175 231 175 m 415 175 q 440 166 431 175 q 450 143 450 157 q 440 119 450 128 q 415 111 431 111 q 393 119 403 111 q 383 143 383 128 q 393 166 383 157 q 415 175 403 175 m 326 74 q 354 60 354 74 q 347 48 354 53 q 326 43 339 43 q 306 48 314 43 q 297 60 297 53 q 306 70 297 67 q 326 74 314 74 z "},"v":{"ha":608,"x_min":18,"x_max":590,"o":"m 264 253 l 257 243 l 300 210 l 349 239 l 338 253 l 300 228 l 264 253 m 139 265 q 153 232 139 246 q 186 218 167 218 q 222 232 210 218 q 235 265 235 246 q 222 299 235 285 q 186 313 210 313 q 153 299 167 313 q 139 265 139 285 m 371 269 q 383 235 371 250 q 418 221 396 221 q 452 235 438 221 q 467 269 467 250 q 452 303 467 289 q 418 317 438 317 q 383 303 396 317 q 371 269 371 289 m 297 -3 l 290 -3 l 121 -3 q 67 0 90 -6 q 33 16 47 4 q 24 54 18 28 q 45 138 29 82 q 79 253 61 194 q 124 397 100 319 l 131 589 q 140 640 132 617 q 165 676 147 660 q 217 692 182 692 q 271 673 247 692 q 294 618 294 654 l 297 419 l 304 401 l 308 419 l 313 618 q 336 673 313 654 q 393 692 360 692 q 442 676 425 692 q 467 640 458 660 q 478 589 476 617 l 481 397 q 526 253 506 319 q 561 138 544 194 q 585 54 578 82 q 576 16 590 28 q 543 0 563 4 q 489 -3 519 -6 l 297 -3 z "},"u":{"ha":693,"x_min":-36,"x_max":733,"o":"m 349 26 l 303 1 l 203 1 q 163 81 179 38 q 137 165 147 117 q 131 265 126 213 q 142 240 135 254 q 162 216 150 226 q 190 204 174 206 q 231 219 207 203 q 242 228 238 225 q 251 238 246 231 q 249 224 249 231 q 249 213 249 218 q 266 162 249 185 q 313 131 283 139 q 328 131 321 128 q 343 138 336 135 q 329 141 336 138 q 317 144 322 144 q 307 151 311 147 q 303 158 303 156 q 317 169 303 164 q 349 176 328 176 q 378 169 367 176 q 392 158 392 164 q 388 151 392 156 q 378 144 383 147 q 367 141 372 144 q 356 138 363 138 q 389 133 375 131 q 432 163 415 142 q 449 213 449 185 q 419 276 449 250 q 349 301 389 301 q 319 297 333 301 q 294 288 306 292 q 310 363 317 326 q 288 428 304 400 q 253 471 271 456 q 233 483 235 486 q 210 452 222 471 q 185 415 197 433 q 162 378 172 396 q 144 351 151 361 l 144 350 q 142 344 144 347 q 174 354 156 354 q 214 339 197 354 q 231 301 231 324 q 214 261 231 278 q 174 244 197 244 q 138 258 154 244 q 119 293 122 272 q 102 242 111 271 q 82 190 93 214 q 58 154 71 167 q 28 151 44 142 q -24 210 -11 175 q -32 283 -36 244 q -12 363 -28 322 q 24 437 4 403 q 61 497 43 471 q 88 531 79 522 q 115 560 97 540 q 161 602 132 579 q 232 647 190 625 q 331 681 274 668 q 337 682 331 682 q 351 682 343 682 q 365 682 358 682 q 374 681 372 682 q 467 647 428 669 q 535 601 507 625 q 582 556 564 578 q 610 524 600 533 q 635 492 618 515 q 672 438 653 469 q 706 369 690 407 q 728 295 722 332 q 725 224 733 258 q 685 167 717 190 q 647 163 665 153 q 611 197 628 174 q 581 249 594 219 q 558 301 567 278 q 542 342 558 325 q 501 358 526 358 q 465 342 481 358 q 449 301 449 325 q 465 263 449 279 q 501 247 481 247 q 540 261 524 247 q 558 293 556 275 q 559 183 568 235 q 535 90 550 131 q 492 1 518 43 l 392 1 l 349 26 z "},"z":{"ha":663,"x_min":-35,"x_max":697,"o":"m 204 457 q 260 433 236 457 q 285 376 285 410 q 260 319 285 343 q 204 296 236 296 q 147 319 171 296 q 122 376 122 343 q 147 433 122 410 q 204 457 171 457 m 464 457 q 521 433 497 457 q 544 376 544 410 q 521 319 544 343 q 464 296 497 296 q 406 319 429 296 q 382 376 382 343 q 406 433 382 410 q 464 457 429 457 m 697 231 l 624 213 l 639 156 l 524 165 q 508 114 518 138 q 482 69 497 90 q 472 85 482 79 l 449 97 l 404 47 q 392 58 397 53 q 364 85 388 63 l 404 26 l 450 74 l 471 53 q 401 -8 439 15 q 331 -31 364 -31 q 258 -8 296 -31 q 189 54 219 15 l 208 74 l 253 26 l 293 85 q 274 67 281 74 q 264 58 268 61 q 258 52 260 54 q 253 47 256 50 l 208 97 l 186 85 q 175 74 179 82 q 153 116 163 93 q 138 165 143 139 l 26 156 l 40 213 l -35 231 l 22 279 l -35 339 l 32 336 q 23 372 26 354 q 19 408 19 389 q 45 515 19 464 q 115 603 71 565 q 215 664 158 642 q 332 686 271 686 q 449 664 393 686 q 549 603 506 642 q 617 515 592 565 q 643 408 643 464 q 631 336 643 371 l 697 339 l 642 279 l 697 231 m 332 222 q 345 238 339 222 q 351 265 351 253 q 345 282 351 276 q 332 288 339 288 q 319 282 325 288 q 314 265 314 276 q 319 238 314 253 q 332 222 325 222 m 464 235 q 522 247 494 235 q 569 278 549 258 q 601 326 589 299 q 613 385 613 353 q 601 442 613 415 q 569 490 589 469 q 522 522 549 510 q 464 533 494 533 q 386 512 421 533 q 332 454 351 490 q 278 512 313 490 q 201 533 243 533 q 142 522 169 533 q 96 490 115 510 q 65 442 76 469 q 53 385 53 415 q 65 326 53 353 q 96 278 76 299 q 142 247 115 258 q 201 235 169 235 q 278 256 243 235 q 332 313 313 278 q 386 256 351 278 q 464 235 421 235 z "},"e":{"ha":713,"x_min":-22,"x_max":732,"o":"m 378 60 l 307 60 l 239 7 l 194 44 q 179 22 186 32 q 167 8 172 14 q 160 3 161 1 q 70 74 104 33 q 16 158 36 115 q -12 243 -4 201 q -21 317 -19 285 q -19 368 -22 349 q -15 386 -17 388 q 9 401 -15 382 q 63 447 33 421 q 140 518 97 478 l -19 431 q 88 587 28 532 q 201 667 147 642 q 297 695 256 692 q 351 697 339 699 q 378 699 357 699 q 431 695 400 700 q 501 676 463 690 q 578 631 539 661 q 657 553 618 601 q 729 431 696 504 l 569 518 q 647 447 613 478 q 701 401 676 421 q 725 386 725 382 q 729 366 726 386 q 731 314 732 346 q 722 241 729 282 q 694 157 714 200 q 640 74 674 114 q 550 3 606 33 q 545 8 550 1 q 533 22 540 14 q 518 44 526 32 l 475 7 l 407 60 l 378 60 m 183 343 q 199 308 183 322 q 235 294 214 294 q 272 308 257 294 q 286 343 286 322 q 272 381 286 367 q 235 394 257 394 q 199 381 214 394 q 183 343 183 367 m 524 343 q 509 381 524 367 q 471 394 494 394 q 433 381 449 394 q 418 343 418 367 q 433 308 418 322 q 471 294 449 294 q 509 308 494 294 q 524 343 524 322 m 267 215 l 349 215 q 406 216 381 215 q 435 219 432 217 q 442 246 453 228 q 412 282 432 264 q 372 313 392 300 q 351 326 353 326 q 341 320 350 326 q 319 303 332 314 q 293 281 307 293 q 270 257 279 269 q 259 233 261 244 q 267 215 257 222 m 410 246 q 406 236 410 242 q 394 231 401 231 q 383 236 388 231 q 378 246 378 242 q 383 256 378 253 q 394 260 388 260 q 410 246 410 260 m 326 246 q 322 236 326 242 q 310 231 317 231 q 299 236 304 231 q 294 246 294 242 q 299 256 294 253 q 310 260 304 260 q 322 256 317 260 q 326 246 326 253 z "},"y":{"ha":825,"x_min":-85,"x_max":900,"o":"m 303 172 q 309 185 303 179 q 322 190 315 190 q 339 172 339 190 q 322 154 339 154 q 309 160 315 154 q 303 172 303 165 m 528 172 q 522 160 528 165 q 508 154 515 154 q 497 160 501 154 q 492 172 492 165 q 497 185 492 179 q 508 190 501 190 q 522 185 515 190 q 528 172 528 179 m 817 681 q 839 707 822 701 q 871 705 856 713 q 893 678 886 697 q 885 628 900 658 q 847 576 869 596 q 804 542 825 556 q 754 517 779 526 q 781 513 769 517 q 794 502 789 510 q 788 479 799 494 q 758 463 776 464 q 721 465 740 461 q 674 482 699 471 l 633 476 l 633 475 q 624 449 633 465 q 654 389 643 425 q 663 304 665 353 q 625 189 660 240 q 529 79 590 138 q 528 68 528 79 q 528 44 529 57 q 525 19 528 31 q 515 4 522 7 q 499 3 513 3 q 468 4 485 4 l 424 4 l 417 83 q 439 76 426 76 q 464 75 451 75 q 515 91 494 75 q 536 131 536 107 q 532 147 536 139 q 543 171 543 158 q 532 192 543 183 q 506 201 521 201 q 471 185 483 201 l 464 185 q 414 169 433 185 q 364 185 394 185 l 360 185 q 325 201 347 201 q 299 192 310 201 q 288 171 288 183 q 297 150 288 157 q 293 131 293 139 q 314 91 293 107 q 364 75 335 75 q 389 76 376 75 q 410 82 401 76 l 404 4 l 360 4 q 328 3 343 4 q 313 4 314 3 q 303 19 306 7 q 299 44 300 31 q 299 68 299 57 q 299 79 299 79 q 202 189 236 138 q 164 304 168 240 q 172 386 161 351 q 200 444 182 421 q 189 475 189 460 l 142 482 q 94 465 117 471 q 57 463 75 461 q 28 479 39 464 q 21 502 17 494 q 35 513 25 510 q 63 517 46 517 q 11 542 36 526 q -32 576 -10 556 q -69 628 -54 596 q -77 678 -85 658 q -54 705 -69 697 q -22 707 -39 713 q -1 681 -6 701 q 24 634 4 656 q 65 599 44 613 q 99 578 85 585 q 107 578 113 572 q 90 619 92 592 q 95 671 88 646 q 118 710 103 696 q 153 715 133 725 q 166 694 169 707 q 156 663 163 681 q 149 622 150 644 q 167 572 147 599 q 183 556 174 563 q 203 544 192 550 q 253 567 219 571 q 329 556 286 564 q 406 574 361 574 q 482 554 451 574 q 526 563 506 558 q 565 568 547 567 q 596 565 582 569 q 618 547 610 560 q 649 572 638 560 q 667 622 668 599 q 659 663 665 644 q 650 694 653 681 q 664 715 647 707 q 699 710 683 725 q 721 671 714 696 q 726 619 728 646 q 708 578 724 592 q 717 578 703 572 q 751 599 731 585 q 791 634 771 613 q 817 681 811 656 m 299 338 q 326 349 315 338 q 338 375 338 360 q 326 401 338 390 q 299 413 315 413 q 272 401 283 413 q 261 375 261 390 q 272 349 261 360 q 299 338 283 338 m 522 338 q 549 349 538 338 q 560 375 560 360 q 549 401 560 390 q 522 413 538 413 q 497 401 507 413 q 486 375 486 390 q 497 349 486 360 q 522 338 507 338 z "},"X":{"ha":932,"x_min":-35,"x_max":983,"o":"m 981 399 l 901 385 l 969 344 l 890 340 l 954 292 l 872 297 l 929 240 l 850 254 l 901 193 l 824 218 l 867 149 l 794 183 l 825 111 l 758 153 l 783 78 l 721 125 l 736 47 l 679 101 l 685 24 l 644 72 q 636 60 640 68 l 636 6 l 614 38 q 599 23 606 31 q 585 8 592 15 l 578 1 q 566 -6 571 -1 q 556 -15 561 -11 q 531 -4 544 -26 l 513 26 q 474 19 497 19 q 440 25 456 19 q 432 9 436 17 q 425 -3 428 1 l 417 -10 q 397 -15 406 -22 q 384 -4 390 -10 q 372 7 378 1 l 363 17 q 348 30 356 24 q 335 43 340 36 l 311 6 l 311 69 q 303 78 306 72 l 258 25 l 268 104 l 207 49 l 225 129 l 160 79 l 186 154 l 118 114 l 151 186 l 78 154 l 122 222 l 43 196 l 94 260 l 17 246 l 75 300 l -6 294 l 58 342 l -22 347 l 47 388 l -31 403 l 42 433 l -35 456 l 42 479 l -31 510 l 47 526 l -21 567 l 58 572 l -6 621 l 76 615 l 18 672 l 96 657 l 47 721 l 125 697 l 82 765 l 154 733 l 119 806 l 189 767 l 164 840 l 228 794 l 210 872 l 269 819 l 258 896 l 313 838 l 311 918 l 358 853 l 364 931 l 404 863 l 421 940 l 451 867 l 474 943 l 499 867 l 532 940 l 547 861 l 588 931 l 594 853 l 642 915 l 639 836 l 694 894 l 685 815 l 743 868 l 725 790 l 790 838 l 763 763 l 832 801 l 797 731 l 871 760 l 828 692 l 906 714 l 854 654 l 933 667 l 875 613 l 956 615 l 890 568 l 971 563 l 901 522 l 981 508 l 907 476 l 983 456 l 907 432 l 981 399 m 556 107 q 633 135 597 117 q 695 179 669 154 q 735 235 721 204 q 750 300 750 267 q 724 388 750 361 q 668 426 699 415 q 610 416 635 438 q 568 358 586 394 q 536 280 550 322 q 510 207 522 238 q 463 213 492 215 q 455 211 458 211 q 447 210 451 211 q 423 282 436 240 q 392 360 410 324 q 349 417 374 396 q 292 426 325 438 q 235 388 261 415 q 210 300 210 361 q 258 184 210 235 q 385 111 307 133 q 399 83 389 97 q 421 57 408 68 q 449 40 433 46 q 481 36 464 33 q 527 60 507 39 q 556 107 547 81 m 363 231 q 393 217 381 231 q 406 185 406 204 q 393 153 406 167 q 363 140 381 140 q 329 153 342 140 q 317 185 317 167 q 329 217 317 204 q 363 231 342 231 m 596 231 q 628 218 615 231 q 642 186 642 206 q 628 154 642 167 q 596 142 615 142 q 565 154 578 142 q 551 186 551 167 q 565 218 551 206 q 596 231 578 231 m 472 92 q 501 86 490 92 q 513 71 513 81 q 501 56 513 63 q 472 49 490 49 q 444 56 457 49 q 432 71 432 63 q 444 86 432 81 q 472 92 457 92 z "},"Y":{"ha":1118,"x_min":-110,"x_max":1232,"o":"m 418 235 q 426 251 418 244 q 443 258 433 258 q 460 251 454 258 q 467 235 467 244 q 460 217 467 224 q 443 210 454 210 q 426 217 433 210 q 418 235 418 224 m 724 235 q 716 217 724 224 q 699 210 708 210 q 682 217 689 210 q 675 235 675 224 q 682 251 675 244 q 699 258 689 258 q 716 251 708 258 q 724 235 724 244 m 1118 926 q 1148 963 1125 956 q 1192 960 1171 971 q 1222 923 1213 950 q 1211 854 1232 896 q 1160 783 1192 813 q 1101 736 1129 754 q 1032 703 1067 715 q 1069 697 1054 703 q 1088 682 1082 693 q 1079 651 1093 671 q 1039 629 1064 632 q 988 633 1014 626 q 924 656 957 639 l 868 649 l 868 647 q 865 630 868 639 q 856 611 861 621 q 897 530 882 579 q 908 414 913 481 q 892 333 906 371 q 856 258 879 294 q 801 184 833 221 q 726 107 768 147 q 726 91 725 106 q 725 59 726 76 q 720 26 724 42 q 707 6 717 10 q 685 4 704 4 q 642 4 665 4 l 582 4 l 574 113 q 603 103 586 104 q 638 101 619 101 q 707 123 678 101 q 736 176 736 144 q 731 200 736 186 q 746 232 746 213 q 731 261 746 249 q 693 274 715 274 q 666 267 678 274 q 647 251 654 261 l 638 251 q 600 246 618 251 q 569 229 582 240 q 501 251 543 251 l 494 251 q 476 267 488 261 q 449 274 464 274 q 412 261 426 274 q 397 232 397 249 q 410 203 397 213 q 404 176 404 192 q 433 123 404 144 q 501 101 461 101 q 535 103 518 101 q 563 111 551 104 l 556 4 l 494 4 q 452 4 471 4 q 431 6 433 4 q 417 26 421 10 q 412 59 413 42 q 412 91 411 76 q 411 107 413 106 q 336 184 369 147 q 280 258 303 221 q 244 333 257 294 q 228 414 231 371 q 239 525 225 478 q 276 604 253 572 q 263 647 263 628 l 199 656 q 135 633 165 639 q 83 629 108 626 q 43 651 57 632 q 35 682 29 671 q 53 697 40 693 q 90 703 68 703 q 19 736 54 715 q -40 783 -10 754 q -90 854 -71 813 q -100 923 -110 896 q -69 960 -90 950 q -26 963 -49 971 q 3 926 -4 956 q 38 863 11 892 q 93 815 65 833 q 140 788 121 796 q 151 786 160 779 q 127 842 131 804 q 134 913 124 879 q 165 968 144 947 q 213 975 186 989 q 231 945 235 964 q 218 901 226 926 q 208 846 210 876 q 232 779 206 815 q 255 758 243 767 q 281 742 267 749 q 309 767 292 760 q 349 774 326 774 q 398 768 371 774 q 454 757 425 763 q 557 781 493 781 q 615 774 588 781 q 663 754 643 768 q 723 766 694 760 q 775 773 751 772 q 817 768 799 774 q 847 744 835 763 q 869 760 858 751 q 889 779 881 768 q 913 846 915 815 q 903 901 911 876 q 891 945 894 926 q 910 975 888 964 q 957 968 936 989 q 988 913 978 947 q 995 842 999 879 q 971 786 992 804 q 981 788 963 779 q 1028 815 1000 796 q 1083 863 1056 833 q 1118 926 1110 892 m 413 460 q 449 474 435 460 q 464 511 464 489 q 449 547 464 532 q 413 561 435 561 q 376 547 392 561 q 361 511 361 532 q 376 474 361 489 q 413 460 392 460 m 717 460 q 753 474 739 460 q 768 511 768 489 q 753 547 768 532 q 717 561 739 561 q 681 547 696 561 q 667 511 667 532 q 681 474 667 489 q 717 460 696 460 z "},"Z":{"ha":924,"x_min":-61,"x_max":986,"o":"m 281 649 q 361 615 328 649 q 394 535 394 582 q 361 452 394 486 q 281 418 328 418 q 198 452 232 418 q 164 535 164 486 q 198 615 164 582 q 281 649 232 649 m 651 649 q 733 615 699 649 q 767 535 767 582 q 733 452 767 486 q 651 418 699 418 q 569 452 603 418 q 536 535 536 486 q 569 615 536 582 q 651 649 603 649 m 986 325 l 879 300 l 901 219 l 736 232 q 714 159 729 193 q 678 94 699 125 q 663 117 678 111 l 629 136 l 567 64 q 559 71 563 68 q 550 78 556 74 q 535 92 544 83 q 510 117 526 101 l 567 35 l 631 101 l 661 72 q 563 -15 617 17 q 461 -47 510 -47 q 358 -15 413 -47 q 258 74 303 18 l 286 101 l 350 35 l 407 117 q 381 92 390 101 q 366 78 371 83 q 358 71 361 74 q 350 64 354 68 l 288 136 l 254 117 q 239 101 243 113 q 207 163 221 131 q 185 232 193 196 l 25 219 l 47 300 l -61 325 l 19 396 l -61 481 l 35 476 q 22 527 26 501 q 17 581 17 553 q 53 731 17 660 q 152 858 90 803 q 294 944 214 913 q 463 976 375 976 q 631 944 550 976 q 772 858 711 913 q 870 731 833 803 q 907 581 907 660 q 889 476 907 525 l 986 481 l 906 396 l 986 325 m 463 315 q 481 336 471 315 q 490 375 490 357 q 481 399 490 392 q 463 407 471 407 q 447 399 456 407 q 438 375 438 392 q 447 336 438 357 q 463 315 456 315 m 650 332 q 734 349 694 332 q 803 394 774 365 q 849 463 832 424 q 865 546 865 501 q 849 628 865 589 q 803 696 832 667 q 734 742 774 725 q 650 758 694 758 q 540 728 589 758 q 463 646 490 697 q 387 728 436 697 q 276 758 338 758 q 193 742 232 758 q 125 696 154 725 q 79 628 96 667 q 63 546 63 589 q 79 463 63 501 q 125 394 96 424 q 193 349 154 365 q 276 332 232 332 q 387 363 338 332 q 463 443 436 394 q 540 363 490 394 q 650 332 589 332 z "},"M":{"ha":774,"x_min":21,"x_max":753,"o":"m 753 568 q 718 432 753 493 q 596 333 683 371 q 607 288 600 315 q 621 234 614 261 q 635 185 628 207 q 647 156 643 164 q 660 104 660 131 q 649 56 660 78 q 613 18 638 33 q 551 -1 589 3 l 389 -1 l 222 -1 q 160 18 185 3 q 125 56 136 33 q 116 104 114 78 q 133 156 118 131 q 142 185 138 164 q 152 231 147 206 q 162 285 157 257 q 171 333 167 313 q 54 430 88 367 q 21 568 21 493 q 25 607 21 589 q 38 646 29 625 q 61 710 46 669 q 100 797 76 751 q 156 888 124 843 q 232 964 189 932 q 256 962 244 975 q 274 924 267 949 q 287 872 282 900 q 294 825 292 843 q 339 828 315 825 q 383 831 363 831 q 431 830 408 831 q 474 825 453 829 q 480 872 475 843 q 493 924 485 900 q 512 962 501 949 q 535 964 522 975 q 612 886 578 932 q 670 793 646 840 q 711 703 694 746 q 736 636 728 661 q 740 622 739 628 q 747 613 742 617 l 747 601 q 750 585 747 594 q 753 568 753 576 m 178 407 q 235 428 211 407 q 260 485 260 450 q 235 540 260 518 q 178 563 211 563 q 114 540 139 563 q 89 485 89 518 q 114 428 89 450 q 178 407 139 407 m 417 439 l 400 451 l 417 463 l 400 479 l 383 463 l 368 479 l 356 463 l 368 451 l 351 439 l 361 424 l 383 439 l 406 424 l 417 439 m 601 407 q 660 428 636 407 q 685 485 685 450 q 660 540 685 518 q 601 563 636 563 q 538 540 564 563 q 513 485 513 518 q 538 428 513 450 q 601 407 564 407 z "},"B":{"ha":810,"x_min":29,"x_max":776,"o":"m 454 917 q 565 875 514 906 q 652 800 615 844 q 710 700 689 756 q 731 583 731 644 q 688 415 731 492 q 567 292 644 338 l 578 292 l 776 204 q 732 172 757 185 q 682 155 711 161 q 618 158 653 149 q 583 90 604 122 q 535 37 564 63 q 464 0 507 11 q 506 82 506 33 q 485 145 506 117 q 433 185 465 174 q 415 191 426 188 q 393 194 404 194 q 383 192 389 194 q 372 189 376 189 q 309 151 333 182 q 285 82 285 121 q 315 6 285 36 q 255 47 279 21 q 215 97 231 72 q 188 158 199 126 q 124 155 153 149 q 74 172 94 161 q 29 204 49 185 l 224 292 q 105 415 150 338 q 60 583 60 492 q 79 694 60 642 q 132 790 99 747 q 211 863 165 832 q 311 907 257 893 l 306 938 l 351 917 l 363 917 l 408 983 l 454 917 m 229 385 q 274 403 257 385 q 290 446 290 422 q 274 490 290 474 q 229 507 257 507 q 185 490 201 507 q 168 446 168 474 q 185 403 168 422 q 229 385 201 385 m 408 292 q 453 351 450 328 q 440 386 457 375 q 396 397 422 397 q 353 385 369 397 q 341 350 338 374 q 388 292 344 326 l 408 292 m 567 385 q 607 403 590 385 q 624 446 624 422 q 607 490 624 474 q 567 507 590 507 q 522 490 539 507 q 506 446 506 474 q 522 403 506 422 q 567 385 539 385 z "},"F":{"ha":990,"x_min":-40,"x_max":1032,"o":"m 740 806 q 766 745 740 771 q 832 719 792 719 q 890 745 865 719 q 915 806 915 771 q 890 870 915 843 q 832 897 865 897 q 766 870 792 897 q 740 806 740 843 m 93 806 q 116 745 93 771 q 178 719 139 719 q 238 745 213 719 q 263 806 263 771 q 238 870 263 843 q 178 897 213 897 q 116 870 139 897 q 93 806 93 843 m 547 754 l 507 719 q 503 704 503 714 q 513 696 506 699 q 524 697 519 693 l 565 732 q 565 749 574 740 q 556 753 560 753 q 547 754 551 754 m 406 749 q 406 732 397 740 l 444 697 q 455 696 449 693 q 461 704 461 699 q 461 719 472 711 l 422 754 q 414 753 418 754 q 406 749 410 753 m 93 601 q 101 632 96 618 q 115 657 106 646 q 41 710 68 671 q 14 800 14 749 q 26 856 14 829 q 58 903 38 883 q 105 935 78 924 q 161 947 132 947 q 263 910 221 947 q 314 817 306 872 q 490 844 393 844 q 598 836 547 844 q 696 806 649 828 q 710 861 697 835 q 742 906 722 888 q 787 936 761 925 q 842 947 813 947 q 902 935 874 947 q 951 903 931 924 q 984 856 972 883 q 996 800 996 829 q 959 701 996 743 q 871 651 922 660 q 885 627 879 640 q 894 601 890 614 q 729 617 838 610 q 479 624 621 624 q 253 619 354 624 q 93 601 153 614 m 360 28 l 354 -1 l 40 10 l 200 72 q 115 119 161 92 q 32 187 68 147 q -22 279 -4 226 q -21 401 -40 332 q -2 431 -15 422 q 29 439 11 440 q 68 429 47 438 q 110 408 89 421 q 90 467 97 438 q 82 526 82 497 l 82 561 q 246 546 142 553 q 479 539 350 539 q 737 547 625 539 q 900 567 849 554 q 905 549 904 558 q 906 526 906 540 q 871 401 906 461 q 915 424 892 414 q 957 435 938 433 q 991 430 976 438 q 1013 401 1006 422 q 1013 278 1032 332 q 954 184 993 224 q 867 117 915 144 q 779 72 818 89 l 939 10 l 626 -1 l 621 22 l 565 22 q 529 17 547 18 q 490 17 511 17 q 456 17 474 17 q 422 22 439 18 q 395 23 414 22 q 360 28 376 24 z "},"H":{"ha":918,"x_min":39,"x_max":875,"o":"m 646 582 q 681 596 667 582 q 696 625 696 610 q 681 658 696 646 q 646 669 667 669 q 615 658 629 669 q 601 625 601 646 q 615 596 601 610 q 646 582 629 582 m 233 582 q 269 596 254 582 q 283 625 283 610 q 269 658 283 646 q 233 669 254 669 q 203 658 217 669 q 190 625 190 646 q 203 596 190 610 q 233 582 217 582 m 447 456 l 488 456 l 518 517 q 537 560 529 540 q 542 582 544 579 q 490 594 513 590 q 447 597 468 597 l 447 456 m 333 575 l 393 456 l 432 456 l 432 597 q 390 594 408 597 q 360 586 372 590 q 333 575 344 581 m 872 279 q 874 262 874 279 q 871 217 875 244 q 856 155 867 189 q 822 88 844 121 q 733 17 786 33 q 630 8 681 0 q 542 40 579 15 q 503 93 506 64 q 492 96 503 94 q 467 98 482 97 q 438 99 453 99 q 415 99 424 99 q 396 59 414 78 q 349 27 378 40 q 286 8 321 14 q 215 8 251 3 q 147 33 179 14 q 90 88 114 51 q 57 155 68 121 q 42 217 46 189 q 41 262 39 244 q 47 279 43 279 q 98 305 76 279 q 134 361 119 331 q 156 416 149 392 q 163 439 163 440 q 126 385 146 408 q 88 350 106 363 q 59 336 71 338 q 47 346 47 335 q 74 499 53 422 q 127 644 96 575 q 194 774 158 714 q 265 876 231 833 q 327 944 299 919 q 371 967 356 968 q 407 952 399 964 q 417 926 415 940 q 410 890 417 911 l 438 890 l 510 890 q 499 926 499 911 q 508 952 499 940 q 547 967 518 964 q 591 942 563 967 q 653 874 619 917 q 724 772 688 831 q 791 643 760 713 q 844 498 822 574 q 872 346 867 422 q 860 336 872 335 q 828 350 847 338 q 790 383 810 363 q 756 433 769 404 q 760 414 753 438 q 783 360 768 390 q 820 305 797 331 q 872 279 843 279 z "}}}
